<?xml version="1.0" encoding="utf-8"?>
<!-- Generator: Adobe Illustrator 27.5.0, SVG Export Plug-In . SVG Version: 6.00 Build 0)  -->
<svg version="1.1" xmlns="http://www.w3.org/2000/svg" xmlns:xlink="http://www.w3.org/1999/xlink" x="0px" y="0px"
	 viewBox="0 0 500 500" style="enable-background:new 0 0 500 500;" xml:space="preserve">
<g id="BACKGROUND">
	<g>
		<rect style="fill:#FFFFFF;" width="500" height="500"/>
	</g>
</g>
<g id="OBJECTS">
	<g>
		<g>
			<g>
				<path style="fill:#42B093;" d="M75.358,283.153c-0.09,4.15-0.37,8.72-2.55,12.07c-0.37,0.58-0.79,1.11-1.29,1.6
					c-0.16,0.17-0.33,0.33-0.51,0.49c-2.36,2.05-5.52,2.72-8.68,3.06c-0.78,0.09-1.56,0.15-2.33,0.21
					c-4.54,0.35-9.18,0.69-13.7,0.39c-1.71-0.11-3.4-0.32-5.06-0.66c-1.27-0.25-2.54-0.57-3.78-0.99
					c-5.35-1.8-10.32-5.68-12.65-10.66c-0.31-0.67-0.58-1.35-0.79-2.06c-0.33-1.11-0.53-2.25-0.58-3.44
					c-0.17-3.7,1.09-7.46,1.23-11.11c0.04-0.67,0.03-1.34-0.04-2.01c-0.07-0.77-0.23-1.53-0.47-2.28
					c-1.47-4.48-5.91-7.17-8.99-10.74c-0.24-0.28-0.48-0.57-0.7-0.88c-0.58-0.75-1.1-1.56-1.55-2.4c-1.26-2.35-2.02-4.98-2.04-7.61
					c-0.02-1.34,0.15-2.69,0.53-3.99c0.38-1.29,1-2.51,1.79-3.63c0.4-0.54,0.85-1.07,1.33-1.55c2.35-2.35,5.58-3.75,8.86-3.37
					c2.17,0.25,4.09,1.18,5.97,2.31c0.69,0.43,1.38,0.88,2.06,1.34c1.99,1.32,3.98,2.67,6.17,3.5c1.2,0.46,2.43,0.73,3.69,0.91
					c0.67,0.09,1.36,0.15,2.04,0.19c2.67,0.16,5.4-0.01,8.11,0.02c0.68,0.02,1.37,0.04,2.05,0.09c1.12,0.07,2.25,0.22,3.36,0.48
					c2.14,0.48,4.13,1.36,5.94,2.54c0.75,0.48,1.46,1.01,2.14,1.6c3.18,2.67,5.67,6.28,7.33,10.17c0.33,0.77,0.62,1.53,0.88,2.31
					c0.51,1.56,0.92,3.15,1.23,4.75C75.618,270.103,75.498,276.683,75.358,283.153z"/>
				<path style="fill:#3B9E84;" d="M62.598,295.653c-0.03,1.54-0.09,3.15-0.27,4.72c-0.78,0.09-1.56,0.15-2.33,0.21
					c-4.54,0.35-9.18,0.69-13.7,0.39c-1.71-0.11-3.4-0.32-5.06-0.66c-1.27-0.25-2.54-0.57-3.78-0.99
					c-5.35-1.8-10.32-5.68-12.65-10.66c-0.31-0.67-0.58-1.35-0.79-2.06c-0.33-1.11-0.53-2.25-0.58-3.44
					c-0.17-3.7,1.09-7.46,1.23-11.11c0.04-0.67,0.03-1.34-0.04-2.01c-0.07-0.77-0.23-1.53-0.47-2.28
					c-1.47-4.48-5.91-7.17-8.99-10.74c-0.24-0.28-0.48-0.57-0.7-0.88c-0.58-0.75-1.1-1.56-1.55-2.4c-1.26-2.35-2.02-4.98-2.04-7.61
					c2.07,0.28,3.91,1.18,5.72,2.27c0.69,0.42,1.38,0.88,2.06,1.33c1.99,1.33,3.98,2.68,6.17,3.51c1.2,0.45,2.43,0.73,3.69,0.9
					c0.67,0.1,1.36,0.16,2.04,0.2c2.67,0.16,5.4-0.02,8.11,0.02c0.68,0.01,1.37,0.04,2.05,0.09c1.12,0.07,2.25,0.22,3.36,0.47
					c2.14,0.49,4.13,1.37,5.94,2.55c0.75,0.48,1.46,1.01,2.14,1.59c3.18,2.67,5.67,6.28,7.33,10.18c0.33,0.76,0.62,1.53,0.88,2.31
					c0.51,1.55,0.92,3.14,1.23,4.75C62.858,282.593,62.738,289.183,62.598,295.653z"/>
				<path style="fill:#225C4D;" d="M72.807,295.226c-0.369,0.577-0.791,1.111-1.286,1.597c-2.236-2.464-4.496-4.912-6.758-7.35
					c-5.319,5.242-11.592,9.132-18.468,11.496c-1.703-0.106-3.393-0.315-5.055-0.652c8.336-1.966,15.915-6.173,22.128-12.336
					c-2.499-2.69-5.023-5.364-7.563-8.011c-9.298,6.2-19.957,9.156-30.997,8.691c-0.312-0.666-0.578-1.353-0.788-2.058
					c10.787,0.66,21.253-2.183,30.342-8.146c-3.271-3.405-6.569-6.785-9.906-10.132c-6.412,2.488-13.018,3.73-19.788,3.732
					c0.034-0.673,0.027-1.344-0.043-2.018c6.227-0.008,12.328-1.142,18.238-3.303c-3.041-3.03-6.096-6.042-9.178-9.029
					c-6.488,0.149-12.883-0.362-19.218-1.561c-0.575-0.756-1.097-1.562-1.548-2.405c6.155,1.305,12.372,1.954,18.673,1.942
					c-6.043-5.81-12.176-11.547-18.398-17.167c0.404-0.548,0.856-1.076,1.329-1.556c4.765,4.313,9.472,8.696,14.138,13.123
					c0.581-4.736,0.814-9.455,0.692-14.18c0.69,0.425,1.384,0.883,2.067,1.338c0.059,4.868-0.257,9.726-0.929,14.588
					c1.365,1.297,2.703,2.62,4.066,3.927c0.178,0.092,0.313,0.237,0.412,0.405c1.396,1.346,2.794,2.682,4.175,4.046
					c1.231-6.151,1.945-12.332,2.136-18.557c0.669,0.096,1.357,0.155,2.04,0.192c-0.193,6.141-0.897,12.23-2.08,18.308
					c0.056,0.169,0.076,0.362,0.005,0.587c-0.085,0.243-0.171,0.485-0.256,0.728c-0.051,0.135-0.117,0.246-0.192,0.345
					c1.468,1.446,2.917,2.929,4.37,4.392c0.138,0.083,0.24,0.189,0.326,0.324c1.632,1.649,3.28,3.271,4.9,4.929
					c1.696-9.845,2.038-19.719,1.03-29.59c0.687,0.017,1.372,0.043,2.052,0.09c1.02,10.145,0.626,20.301-1.158,30.398
					c-0.059,0.311-0.219,0.516-0.424,0.638c2.667,2.737,5.321,5.483,7.949,8.253c2.768-11.94,3.748-24.068,2.933-36.271
					c0.751,0.481,1.459,1.015,2.146,1.596c0.65,12.093-0.445,24.133-3.263,35.967c-0.045,0.157-0.108,0.3-0.195,0.407
					c2.294,2.435,4.574,4.888,6.842,7.348c3.089-10.98,4.411-22.205,3.939-33.547c0.332,0.764,0.623,1.53,0.878,2.309
					c0.512,1.558,0.923,3.145,1.235,4.753c-0.225,9.346-1.642,18.594-4.255,27.67c-0.064,0.195-0.169,0.339-0.29,0.459
					C70.816,293.026,71.809,294.115,72.807,295.226z"/>
			</g>
			<g>
				<path style="fill:#42B093;" d="M487.078,259.883c-0.45,0.84-0.97,1.65-1.55,2.41c-0.22,0.3-0.46,0.59-0.7,0.88
					c-3.08,3.57-7.52,6.26-8.99,10.73c-0.24,0.75-0.4,1.51-0.47,2.28c-0.07,0.67-0.08,1.34-0.04,2.02c0.14,3.64,1.4,7.41,1.23,11.11
					c-0.05,1.18-0.25,2.32-0.58,3.43c-0.21,0.71-0.48,1.4-0.79,2.06c-2.33,4.99-7.3,8.86-12.65,10.66c-1.24,0.42-2.51,0.74-3.78,1
					c-1.66,0.33-3.35,0.54-5.06,0.65c-4.52,0.3-9.16-0.04-13.7-0.39c-0.22-0.02-0.43-0.03-0.65-0.04c-3.7-0.3-7.58-0.8-10.36-3.23
					c-0.18-0.15-0.35-0.31-0.51-0.49c-0.5-0.48-0.92-1.02-1.29-1.59c-2.18-3.36-2.46-7.93-2.55-12.08c-0.14-6.46-0.26-13.05,1-19.34
					c0.31-1.61,0.72-3.2,1.23-4.76c0.26-0.78,0.55-1.54,0.88-2.31c1.66-3.89,4.15-7.5,7.33-10.17c0.68-0.58,1.39-1.12,2.14-1.6
					c1.81-1.17,3.8-2.06,5.94-2.54c1.11-0.26,2.24-0.4,3.36-0.48c0.68-0.04,1.37-0.07,2.05-0.09c2.71-0.03,5.44,0.15,8.11-0.02
					c0.68-0.03,1.37-0.09,2.04-0.19c1.26-0.17,2.49-0.45,3.69-0.9c2.19-0.84,4.18-2.19,6.17-3.51c0.68-0.45,1.37-0.91,2.06-1.34
					c1.88-1.12,3.8-2.05,5.97-2.31c3.28-0.38,6.51,1.03,8.86,3.37c0.48,0.48,0.93,1.01,1.33,1.56c0.68,0.95,1.23,1.99,1.62,3.09
					c0.06,0.18,0.12,0.36,0.17,0.54C489.718,252.143,488.988,256.333,487.078,259.883z"/>
				<path style="fill:#3B9E84;" d="M487.078,259.883c-0.45,0.84-0.97,1.65-1.55,2.41c-0.22,0.3-0.46,0.59-0.7,0.88
					c-3.08,3.57-7.52,6.26-8.99,10.73c-0.24,0.75-0.4,1.51-0.47,2.28c-0.07,0.67-0.08,1.34-0.04,2.02c0.14,3.64,1.4,7.41,1.23,11.11
					c-0.05,1.18-0.25,2.32-0.58,3.43c-0.21,0.71-0.48,1.4-0.79,2.06c-2.33,4.99-7.3,8.86-12.65,10.66c-1.24,0.42-2.51,0.74-3.78,1
					c-1.66,0.33-3.35,0.54-5.06,0.65c-4.52,0.3-9.16-0.04-13.7-0.39c-0.22-0.02-0.43-0.03-0.65-0.04c-1.11-2.96-1.3-6.44-1.36-9.67
					c-0.14-6.47-0.26-13.05,0.99-19.35c0.32-1.6,0.73-3.19,1.24-4.75c0.26-0.78,0.55-1.54,0.88-2.31c1.65-3.89,4.15-7.5,7.32-10.17
					c0.69-0.58,1.4-1.12,2.15-1.6c1.81-1.18,3.8-2.06,5.94-2.54c1.1-0.26,2.23-0.41,3.36-0.48c0.68-0.04,1.36-0.07,2.05-0.09
					c2.7-0.03,5.44,0.14,8.1-0.02c0.68-0.04,1.37-0.09,2.04-0.19c1.26-0.18,2.5-0.45,3.69-0.9c2.19-0.84,4.18-2.19,6.17-3.51
					c0.68-0.46,1.38-0.91,2.07-1.34c1.42-0.86,2.87-1.6,4.43-2.01c0.06,0.18,0.12,0.36,0.17,0.54
					C489.718,252.143,488.988,256.333,487.078,259.883z"/>
				<path style="fill:#225C4D;" d="M427.189,301.369c0.369,0.577,0.791,1.111,1.286,1.598c2.236-2.464,4.496-4.912,6.758-7.35
					c5.319,5.242,11.592,9.132,18.468,11.496c1.703-0.106,3.393-0.315,5.055-0.652c-8.336-1.966-15.915-6.173-22.129-12.336
					c2.499-2.69,5.023-5.364,7.563-8.011c9.298,6.2,19.957,9.156,30.997,8.691c0.312-0.666,0.578-1.353,0.788-2.058
					c-10.787,0.66-21.253-2.183-30.342-8.146c3.271-3.405,6.569-6.785,9.906-10.132c6.412,2.488,13.018,3.73,19.788,3.732
					c-0.034-0.672-0.027-1.344,0.043-2.018c-6.227-0.008-12.328-1.142-18.238-3.302c3.041-3.03,6.096-6.042,9.178-9.029
					c6.488,0.148,12.883-0.362,19.218-1.561c0.575-0.756,1.097-1.562,1.548-2.405c-6.155,1.305-12.372,1.954-18.673,1.942
					c6.043-5.81,12.176-11.547,18.398-17.167c-0.404-0.548-0.856-1.076-1.329-1.557c-4.765,4.313-9.472,8.696-14.138,13.123
					c-0.582-4.736-0.814-9.455-0.692-14.18c-0.69,0.425-1.384,0.883-2.067,1.338c-0.059,4.868,0.257,9.726,0.929,14.588
					c-1.365,1.297-2.703,2.62-4.066,3.927c-0.178,0.092-0.314,0.237-0.412,0.405c-1.396,1.346-2.794,2.682-4.175,4.046
					c-1.231-6.151-1.945-12.332-2.136-18.557c-0.669,0.096-1.357,0.155-2.039,0.192c0.193,6.141,0.897,12.23,2.08,18.308
					c-0.057,0.169-0.077,0.362-0.006,0.587c0.085,0.243,0.171,0.485,0.256,0.728c0.051,0.135,0.117,0.246,0.192,0.345
					c-1.468,1.446-2.917,2.929-4.37,4.392c-0.138,0.083-0.24,0.189-0.326,0.324c-1.632,1.649-3.28,3.271-4.9,4.929
					c-1.696-9.845-2.038-19.719-1.03-29.59c-0.687,0.017-1.371,0.043-2.052,0.09c-1.02,10.145-0.626,20.301,1.157,30.398
					c0.059,0.311,0.219,0.516,0.424,0.638c-2.667,2.737-5.321,5.483-7.949,8.253c-2.768-11.94-3.748-24.069-2.933-36.271
					c-0.751,0.481-1.459,1.015-2.146,1.596c-0.65,12.093,0.445,24.133,3.263,35.967c0.046,0.157,0.109,0.3,0.195,0.407
					c-2.294,2.435-4.574,4.888-6.842,7.348c-3.089-10.98-4.411-22.205-3.939-33.547c-0.332,0.764-0.622,1.53-0.878,2.309
					c-0.512,1.558-0.923,3.145-1.235,4.753c0.225,9.346,1.642,18.594,4.255,27.67c0.064,0.195,0.169,0.339,0.29,0.459
					C429.18,299.169,428.187,300.258,427.189,301.369z"/>
			</g>
			<path style="fill:#EDECC7;" d="M453.807,438.724c10.093,0,18.715-7.329,20.276-17.3c5.056-32.288,5.091-71.979-9.092-106.892
				c-7.186-17.69-20.425-31.405-28.455-48.625c-7.065-15.152-9.587-32.371-13.938-48.767c-4.351-16.397-11.283-33.073-24.102-42.273
				c-12.967-9.306-29.305-9.221-44.467-12.115c-15.82-3.02-31.096-9.615-44.652-19.278c-10.989-7.833-20.898-17.677-32.629-24.004
				c-7.083-3.82-15.202-6.166-22.966-5.747c-7.765-0.419-15.884,1.926-22.966,5.747c-11.73,6.327-21.639,16.171-32.628,24.004
				c-13.556,9.663-28.832,16.258-44.652,19.278c-15.162,2.894-31.501,2.809-44.467,12.115c-12.819,9.2-19.751,25.876-24.102,42.273
				c-4.351,16.397-6.872,33.615-13.938,48.767c-8.03,17.22-21.269,30.935-28.455,48.625c-14.183,34.913-14.149,74.604-9.092,106.892
				c1.562,9.972,10.183,17.3,20.276,17.3H453.807z"/>
			<g>
				<g>
					<path style="fill:#1B3036;" d="M415.422,236.021l-1.442-12.707v-8.944c0-20.307-16.462-36.769-36.769-36.769h0
						c-20.307,0-36.769,16.462-36.769,36.769v8.944L339,236.021c-0.69,6.079-3.194,11.809-7.187,16.445v0
						c13.555,4.19,77.24,4.19,90.795,0v0C418.616,247.83,416.112,242.1,415.422,236.021z"/>
					<path style="fill:#E95F5C;" d="M446.148,438.723h-137.41l9.25-160.4c0,0,13.05-13.39,31.83-20.9c0.02-0.01,0.03-0.01,0.05-0.02
						c1.04-0.42,2.1-0.82,3.17-1.19c7.49-2.62,15.76-4.2,24.4-3.63c8.64-0.57,16.92,1.01,24.4,3.63c1.08,0.37,2.14,0.77,3.18,1.19
						c0.02,0.01,0.03,0.01,0.05,0.02c18.77,7.51,31.83,20.9,31.83,20.9l4.61,79.95l0.69,11.87L446.148,438.723z"/>
					<path style="fill:#D15553;" d="M442.198,370.143c-7.33,3.12-16.56,1.87-16.56,1.87l-1.08-8.11l1.94-2.84l15.01-2.79
						L442.198,370.143z"/>
					<rect x="327.555" y="366.633" style="fill:#D15553;" width="99.777" height="72.09"/>
					<rect x="330.708" y="366.633" style="fill:#FCAF4B;" width="93.47" height="72.09"/>
					<rect x="330.708" y="366.633" style="fill:#FCC14B;" width="77.66" height="62.88"/>
					<g>
						<g>
							<path style="fill:#EE9170;" d="M333.24,209.324l9.014-2.862c1.226-0.389,2.547,0.213,3.058,1.393l0,0
								c0.493,1.138,0.079,2.465-0.973,3.122l-7.253,4.526L333.24,209.324z"/>
							<g>
								<path style="fill:#EE9170;" d="M300.154,233.98l-3.291-6.113c0,0,10.681-19.446,26.836-20.923
									c1.826-0.167,3.555,0.861,4.357,2.509l2.238,4.599c0.564,1.16,0.15,2.559-0.955,3.224l0,0
									c-1.072,0.645-2.456,0.396-3.235-0.583l-2.916-3.664l-7.897,16.014L300.154,233.98z"/>
								<path style="fill:#DB7F5E;" d="M316.086,222.206c-0.863-2.309-1.152-4.912-0.338-7.239c0.814-2.327,2.87-4.294,5.32-4.569
									c-3.148,2.72-4.609,7.249-3.646,11.297C316.977,221.865,316.532,222.035,316.086,222.206z"/>
								<path style="fill:#98CBD4;" d="M352.678,208.623v21.18h-25.31c-2.93,0-5.57-1.18-7.49-3.1c-1.92-1.92-3.1-4.56-3.1-7.49
									c0-1.35,0.25-2.65,0.72-3.83c1.53-3.96,5.37-6.76,9.87-6.76H352.678z"/>
								<path style="fill:#BBE2E9;" d="M352.678,208.623v13.52h-25.31c-2.93,0-5.57-1.19-7.49-3.1c-1.03-1.03-1.85-2.28-2.38-3.66
									c1.53-3.96,5.37-6.76,9.87-6.76H352.678z"/>
								<path style="fill:#EE9170;" d="M308.477,231.548c-0.026-3.342,1.833-6.655,4.728-8.337
									c3.052-1.773,7.109-1.648,10.046,0.309c0.882-0.849,1.852-1.65,2.807-2.46c1.29-1.094,3.212-0.967,4.361,0.274
									c0.012,0.013,0.023,0.025,0.035,0.038c0.773,0.845,1.045,2.051,0.667,3.132c-1.236,3.533-3.84,6.634-6.994,8.636
									c-3.71,2.354-8.388,3.13-12.657,2.085C309.771,234.808,308.491,233.298,308.477,231.548z"/>
								<path style="fill:#DB7F5E;" d="M305.988,226.291c3.128-3.369,7.977-5.047,12.518-4.333c-5.457,0.7-10.677,3.144-14.71,6.886
									C305.416,227.133,304.385,228.017,305.988,226.291z"/>
								<path style="fill:#EE9170;" d="M327.722,206.383c0.171-0.02,4.017-0.78,4.189-0.796c1.826-0.167,3.555,0.861,4.357,2.509
									l2.238,4.599c0.564,1.16,0.15,2.559-0.955,3.224c-1.072,0.645-2.456,0.396-3.235-0.583l-2.916-3.664L327.722,206.383z"/>
								<path style="fill:#EE9170;" d="M323.188,207.008c0.171-0.02,4.017-0.78,4.189-0.796c1.826-0.167,3.555,0.861,4.357,2.509
									l2.238,4.6c0.564,1.16,0.15,2.559-0.955,3.224c-1.072,0.645-2.456,0.396-3.235-0.583l-2.916-3.664L323.188,207.008z"/>
								<path style="fill:#EE9170;" d="M323.188,207.008c0.171-0.02,0.339-0.049,0.51-0.065c1.826-0.167,3.555,0.861,4.357,2.509
									l2.238,4.599c0.564,1.16,0.15,2.559-0.955,3.224c-1.072,0.645-2.456,0.396-3.234-0.583l-6.221-6.884L323.188,207.008z"/>
							</g>
						</g>
						<path style="fill:#EE9170;" d="M272.518,330.46c11.378,13.788,31.274,12.798,41.825,11.072l3.646-63.212l-21.125,11.994
							c-1.011,0.715-2.318-0.327-1.859-1.471l19.818-53.42c0,0-5.536-10.918-17.108-8.457
							C297.715,226.966,241.54,284.162,272.518,330.46z"/>
						<path style="fill:#DB7F5E;" d="M296.549,328.109c-0.349-0.935-14.114-21.707-1.582-39.862l3.781,6.223L296.549,328.109z"/>
					</g>
					<path style="fill:#E95F5C;" d="M377.441,252.582c0,0-36.258-4.284-82.475,35.666c0,0-11.78,33.142,15.531,61.345l25.348-21.768
						L377.441,252.582z"/>
					<path style="fill:#D15553;" d="M314.111,339.992l24.649-33.502l-19.531,33.317c-1.609,2.745-2.502,5.85-2.597,9.029
						l-2.521,84.284l-5.371-0.001L314.111,339.992z"/>
					<path style="fill:#E95F5C;" d="M467.218,316.573c-6.67,5.85-27.18,21.51-49.25,14.7l-8.75-16.13l-31.77-62.56
						c0,0,43.19-6.44,77.1,37.55c0,0,0.01,0.01,0.04,0.04c1.63,2.11,3.24,4.34,4.81,6.7
						C462.148,301.403,465.388,308.103,467.218,316.573z"/>
					<path style="fill:#D15553;" d="M329.119,366.51h17.546l73.583-16.006l-2.276-19.229c-12.026-18.318-8.724-46.719-8.724-46.719
						c-5.504,19.878-0.467,36.557,1.913,42.729c0.548,1.421-0.19,3.006-1.628,3.511l-78.785,27.679
						c-1.913,0.672-3.194,2.479-3.194,4.507C327.555,364.362,328.149,365.626,329.119,366.51z"/>
					<path style="fill:#EE9170;" d="M389.828,262.693c0,5.65-5.55,10.23-12.39,10.23c-6.84,0-12.38-4.58-12.38-10.23
						c0-4.17,3.03-7.75,7.36-9.34v-15.49h10.05v15.49C386.798,254.943,389.828,258.523,389.828,262.693z"/>
					<path style="fill:#DB7F5E;" d="M382.468,237.863v13.31c-1.62,0.33-3.3,0.51-5.02,0.51s-3.4-0.18-5.03-0.51v-13.31H382.468z"/>
					<path style="fill:#EE9170;" d="M402.214,214.199v8.426c0,13.676-11.092,24.768-24.768,24.768
						c-13.686,0-24.768-11.092-24.768-24.768v-8.426h3.595l2.165-7.405l2.553,7.405h8.681l2.431-8.682l3.064,8.682h5.597
						l2.941-8.426l3.187,8.426h7.793l3.166-7.405l1.828,7.405H402.214z"/>
					<g>
						<rect x="368.835" y="366.637" style="fill:#1D5569;" width="17.213" height="15.913"/>
					</g>
					<path style="fill:#EE9170;" d="M365.057,364.339l-3.422,2.298c0,0-4.511,4.341-9.566,0l-5.426,4.716
						c-0.993,0.863-2.466,0.879-3.478,0.036l0,0c-1.238-1.032-1.294-2.916-0.117-4.018l1.476-1.384h-11.439
						c-1.315,0-2.381-1.066-2.381-2.381l0,0c0-1.074,0.719-2.015,1.755-2.298l29.176-7.948c0,0,4.213,3.575,4.213,3.958
						C365.849,357.7,365.057,364.339,365.057,364.339z"/>
					<path style="fill:#EE9170;" d="M467.108,344.503c-4.12,11.6-13.39,22.13-33.47,22.13c-47.59,0-72,0-72,0v-13.27l56.33-22.09
						c22.07,6.81,42.58-8.85,49.25-14.7C468.918,324.443,469.388,333.853,467.108,344.503z"/>
					<path style="fill:#DB7F5E;" d="M454.628,325.533c0,0-15.28,15.54-40.95,7.42l4.29-1.68c13.84,4.27,27.06-0.29,36.64-5.74
						H454.628z"/>
				</g>
				<g>
					<g>
						<g>
							<g>
								<path style="fill:#D15553;" d="M196.747,434.227h-5.032c-1.933,0-3.5-1.567-3.5-3.5c0-1.933,1.567-3.5,3.5-3.5h5.032
									c3.35,0,6.075-2.726,6.075-6.075v-47.11c0-1.933,1.567-3.5,3.5-3.5c1.933,0,3.5,1.567,3.5,3.5v47.11
									C209.822,428.362,203.956,434.227,196.747,434.227z"/>
							</g>
							<path style="fill:#133A47;" d="M212.726,378.893h-21.502c-4.09,0-7.405-3.315-7.405-7.405l0,0
								c0-4.09,3.315-7.405,7.405-7.405h21.502c4.09,0,7.405,3.315,7.405,7.405l0,0C220.13,375.578,216.815,378.893,212.726,378.893
								z"/>
						</g>
						<g>
							<g>
								<path style="fill:#D15553;" d="M66.691,434.227h-5.032c-7.209,0-13.075-5.865-13.075-13.075v-47.11
									c0-1.933,1.567-3.5,3.5-3.5c1.933,0,3.5,1.567,3.5,3.5v47.11c0,3.35,2.725,6.075,6.075,6.075h5.032
									c1.933,0,3.5,1.567,3.5,3.5C70.191,432.66,68.624,434.227,66.691,434.227z"/>
							</g>
							<path style="fill:#133A47;" d="M45.681,378.893h21.502c4.09,0,7.405-3.315,7.405-7.405l0,0c0-4.09-3.315-7.405-7.405-7.405
								H45.681c-4.09,0-7.405,3.315-7.405,7.405l0,0C38.276,375.578,41.591,378.893,45.681,378.893z"/>
						</g>
					</g>
					<path style="fill:#D15553;" d="M202.138,266.593l-8.59,117.66c-1.54,21.01-19.04,37.28-40.11,37.28h-48.47
						c-6.28,0-12.25-1.45-17.58-4.04c-12.51-6.09-21.45-18.5-22.53-33.24l-8.59-117.66c-1.71-23.31,16.74-43.15,40.1-43.15h65.67
						C185.398,223.443,203.848,243.283,202.138,266.593z"/>
					<path style="fill:#E95F5C;" d="M168.838,262.553l-8.6,117.66c-1.53,21.02-19.03,37.28-40.11,37.28h-32.74
						c-12.51-6.09-21.45-18.5-22.53-33.24l-8.59-117.66c-1.71-23.31,16.74-43.15,40.1-43.15h49.96
						C160.608,230.403,170.078,245.553,168.838,262.553z"/>
					<g>
						<path style="fill:#174656;" d="M197.91,438.724H60.497L69.75,278.32c0,0,13.053-13.39,31.826-20.897
							c0.02-0.01,0.031-0.01,0.051-0.02c1.042-0.419,2.104-0.817,3.176-1.185c7.487-2.625,15.759-4.208,24.4-3.636
							c8.641-0.572,16.914,1.011,24.4,3.636c1.072,0.368,2.135,0.766,3.176,1.185c0.021,0.01,0.031,0.01,0.051,0.02
							c18.773,7.507,31.826,20.897,31.826,20.897L197.91,438.724z"/>
						<path style="fill:#133A47;" d="M104.496,426.131c0,0-17.711,1.983-41.815-25.288l0.706-12.242l41.58,32.934L104.496,426.131z"
							/>
						<path style="fill:#133A47;" d="M98.353,263.358c-5.141,4.708-8.61,11.204-9.664,18.095c-1.054,6.89,0.316,14.127,3.815,20.156
							c3.06,5.272,7.765,9.849,8.848,15.848c1.005,5.568-1.35,11.138-1.955,16.764c-1.084,10.071,3.989,20.557,12.558,25.957
							C109.824,327.627,105.273,295.235,98.353,263.358z"/>
						<path style="fill:#133A47;" d="M159.624,263.358c5.141,4.708,8.61,11.204,9.664,18.095c1.054,6.89-0.316,14.127-3.815,20.156
							c-3.06,5.272-7.766,9.849-8.848,15.848c-1.005,5.568,1.35,11.138,1.955,16.764c1.084,10.071-3.989,20.557-12.558,25.957
							C148.153,327.627,152.703,295.235,159.624,263.358z"/>
						<polygon style="fill:#EE9170;" points="90.453,416.683 104.496,426.131 107.05,412.087 95.304,400.852 						"/>
						<path style="fill:#1D5569;" d="M126.057,375.267c-6.639-4.811-13.39-9.713-18.405-16.383
							c-5.015-6.669-8.13-15.494-6.363-23.818c1.328-6.23,5.27-12.093,4.29-18.384c-1.113-7.16-7.997-11.429-11.746-17.496
							c-4.31-6.966-4.208-16.199-1.634-24.073c2.094-6.445,5.648-12.185,9.427-17.71c1.042-0.419,2.104-0.817,3.176-1.185
							C114.373,295.336,121.482,335.138,126.057,375.267z"/>
						<path style="fill:#1D5569;" d="M152.827,316.682c-0.98,6.292,2.962,12.154,4.29,18.384c1.767,8.324-1.348,17.149-6.363,23.818
							c-5.015,6.669-11.766,11.572-18.405,16.383c4.576-40.129,11.684-79.931,21.254-119.049c1.072,0.368,2.135,0.766,3.176,1.185
							c3.779,5.526,7.333,11.266,9.427,17.71c2.574,7.875,2.676,17.108-1.634,24.073
							C160.824,305.253,153.94,309.523,152.827,316.682z"/>
						<path style="fill:#FCAF4B;" d="M156.828,257.423l-12,63.57l-0.9,4.8l-14.72,77.96l-15.18-80.39l-0.86-4.54l-11.59-61.4
							c8.3-3.32,17.72-5.49,27.63-4.84C139.108,251.933,148.528,254.103,156.828,257.423z"/>
						<path style="fill:#F7924A;" d="M144.828,320.993l-0.9,4.8h-0.04c-5.04,0.13-10.06-2.42-12.94-6.56
							c-3.01,3.72-7.96,5.77-12.71,5.27c-1.46-0.16-2.88-0.55-4.21-1.14l-0.86-4.54c1.88,0.24,3.79,0.12,5.62-0.36
							c3.98-1.04,7.49-3.77,9.48-7.36c2.88,4.5,7.48,7.86,12.65,9.24C142.198,320.683,143.508,320.903,144.828,320.993z"/>
						<g>
							<g>
								<path style="fill:#FCC14B;" d="M127.24,270.043c-2.818,3.762-8.153,4.528-11.915,1.71c-3.762-2.818-4.528-8.153-1.71-11.915
									s11.826-9.432,15.589-6.614C132.966,256.042,130.057,266.281,127.24,270.043z"/>
								<path style="fill:#FCC14B;" d="M131.16,270.043c2.818,3.762,8.152,4.528,11.915,1.71c3.762-2.818,4.528-8.153,1.71-11.915
									s-11.826-9.432-15.589-6.614C125.434,256.042,128.342,266.281,131.16,270.043z"/>
							</g>
						</g>
						<path style="fill:#EE9170;" d="M134.218,237.863v24.43c0,2.77-2.24,5.02-5.02,5.02c-2.77,0-5.02-2.25-5.02-5.02v-24.43
							H134.218z"/>
						<path style="fill:#DB7F5E;" d="M134.218,234.863v14.42c-1.62,0.33-3.3,0.51-5.02,0.51c-1.72,0-3.4-0.18-5.02-0.51v-14.42
							H134.218z"/>
						<path style="fill:#174656;" d="M69.754,278.32c0,0-35.475,31.121-26.539,80.912c6.724,35.237,47.238,57.451,47.238,57.451
							l10.213-14.044c0,0-34.045-33.364-8.852-81.027L69.754,278.32z"/>
						<path style="fill:#133A47;" d="M96.099,397.606c-11.911-18.992-14.901-42.451-13.043-64.792
							c-0.199,24.085,7.347,53.654,26.192,69.57c-0.636,1.944-2.495,6.013-4.375,5.209
							C102.993,406.789,97.185,399.339,96.099,397.606z"/>
						<circle style="fill:#1B3036;" cx="129.2" cy="169.941" r="16.342"/>
						<path style="fill:#E95F5C;" d="M134.902,180.58c0,3.149-2.553,5.703-5.703,5.703c-3.149,0-5.703-2.553-5.703-5.703
							c0-3.149,2.553-5.702,5.703-5.702C132.349,174.877,134.902,177.43,134.902,180.58z"/>
						<circle style="fill:#1B3036;" cx="129.2" cy="209.859" r="30.385"/>
						<g>
							<path style="fill:#EE9170;" d="M105.104,220.078c1.637,1.339,3.592,5.153,2.253,6.791c-1.339,1.637-5.465,0.478-7.103-0.861
								c-1.637-1.339-1.879-3.752-0.54-5.39S103.467,218.739,105.104,220.078z"/>
							<path style="fill:#FFFFFF;stroke:#231F20;stroke-linecap:round;stroke-linejoin:round;stroke-miterlimit:10;" d="
								M153.295,220.078c-1.637,1.339-3.592,5.153-2.253,6.791c1.339,1.637,5.465,0.478,7.103-0.861s1.879-3.752,0.54-5.39
								C157.346,218.981,154.933,218.739,153.295,220.078z"/>
						</g>
						<path style="fill:#EE9170;" d="M153.968,219.684v2.941c0,13.676-11.092,24.768-24.768,24.768
							c-13.676,0-24.768-11.092-24.768-24.768v-7.415c6.69-3.554,12.205-9.039,15.79-15.719
							C126.677,211.513,139.372,219.684,153.968,219.684z"/>
						<g>
							<path style="fill:#EE9170;" d="M173.405,209.324l-9.014-2.862c-1.226-0.389-2.547,0.213-3.058,1.393l0,0
								c-0.493,1.138-0.079,2.465,0.973,3.122l7.253,4.526L173.405,209.324z"/>
							<g>
								<path style="fill:#EE9170;" d="M206.491,233.98l3.291-6.113c0,0-10.681-19.446-26.835-20.923
									c-1.826-0.167-3.555,0.861-4.357,2.509l-2.238,4.599c-0.564,1.16-0.15,2.559,0.955,3.224l0,0
									c1.072,0.645,2.456,0.396,3.235-0.583l2.916-3.664l7.897,16.014L206.491,233.98z"/>
								<path style="fill:#DB7F5E;" d="M188.951,212.448c1.886,2.609,2.17,6.285,0.707,9.152c0.153-4.031-1.485-8.097-4.39-10.896
									C186.648,210.238,188.098,211.268,188.951,212.448z"/>
								
									<line style="fill:none;stroke:#174656;stroke-linecap:round;stroke-linejoin:round;stroke-miterlimit:10;" x1="181.144" y1="219.817" x2="316.775" y2="219.817"/>
								<path style="fill:#98CBD4;" d="M189.868,219.213c0,2.93-1.19,5.57-3.1,7.49c-1.92,1.92-4.57,3.1-7.49,3.1h-25.31v-21.18
									h25.31c4.64,0,8.58,2.98,10.01,7.13C189.668,216.833,189.868,218.003,189.868,219.213z"/>
								<path style="fill:#BBE2E9;" d="M189.288,215.753c-0.53,1.53-1.4,2.9-2.52,4.02c-1.92,1.91-4.57,3.1-7.49,3.1h-25.31v-14.25
									h25.31C183.918,208.623,187.858,211.603,189.288,215.753z"/>
								<path style="fill:#EE9170;" d="M198.168,231.548c0.026-3.342-1.833-6.655-4.728-8.337
									c-3.052-1.773-7.109-1.648-10.046,0.309c-0.882-0.849-1.852-1.65-2.807-2.46c-1.29-1.094-3.212-0.967-4.362,0.274
									c-0.012,0.013-0.023,0.025-0.035,0.038c-0.773,0.845-1.045,2.051-0.667,3.132c1.235,3.533,3.84,6.634,6.994,8.636
									c3.71,2.354,8.388,3.13,12.657,2.085C196.874,234.808,198.154,233.298,198.168,231.548z"/>
								<path style="fill:#DB7F5E;" d="M197.256,227.17c-0.136-1.57-0.977-3.066-2.248-3.998c-1.271-0.932-2.95-1.285-4.489-0.943
									C193.177,223.184,195.548,224.922,197.256,227.17z"/>
								<path style="fill:#EE9170;" d="M178.923,206.383c-0.171-0.02-4.017-0.78-4.189-0.796c-1.826-0.167-3.555,0.861-4.357,2.509
									l-2.238,4.599c-0.564,1.16-0.15,2.559,0.955,3.224c1.072,0.645,2.456,0.396,3.235-0.583l2.916-3.664L178.923,206.383z"/>
								<path style="fill:#EE9170;" d="M183.456,207.008c-0.171-0.02-4.017-0.78-4.189-0.796c-1.826-0.167-3.555,0.861-4.357,2.509
									l-2.238,4.6c-0.564,1.16-0.15,2.559,0.955,3.224c1.072,0.645,2.456,0.396,3.235-0.583l2.916-3.664L183.456,207.008z"/>
								<path style="fill:#EE9170;" d="M183.456,207.008c-0.171-0.02-0.339-0.049-0.511-0.065c-1.826-0.167-3.555,0.861-4.357,2.509
									l-2.238,4.599c-0.564,1.16-0.15,2.559,0.955,3.224c1.072,0.645,2.456,0.396,3.235-0.583l5.564-6.835L183.456,207.008z"/>
							</g>
						</g>
						<path style="fill:#174656;" d="M234.128,330.463c-11.38,13.79-31.27,12.79-41.83,11.07l-16.2-5.44l2.82-66.06l9.74,8.29
							l20.19,14.9c1.01,0.71,2.32-0.33,1.86-1.47l-18.89-56.33c0,0,5.54-10.92,17.11-8.46
							C208.928,226.963,265.108,284.163,234.128,330.463z"/>
					</g>
					<g>
						<path style="fill:#98CBD4;" d="M90.147,424.343h18.672v14.381H98.512c-4.619,0-8.364-3.745-8.364-8.364V424.343z"/>
						<path style="fill:#98CBD4;" d="M204.338,373.813v56.46c0,4.67-3.78,8.45-8.45,8.45h-87.07c-4.19,0-7.66-3.04-8.33-7.03
							c-0.08-0.46-0.12-0.94-0.12-1.42v-56.46c0-4.67,3.78-8.45,8.45-8.45h87.07C200.558,365.363,204.338,369.143,204.338,373.813z"
							/>
						<path style="fill:#BBE2E9;" d="M194.118,366.773v56.47c0,4.67-3.78,8.45-8.45,8.45h-85.18c-0.08-0.46-0.12-0.94-0.12-1.42
							v-56.46c0-4.67,3.78-8.45,8.45-8.45h85.18C194.078,365.823,194.118,366.293,194.118,366.773z"/>
						
							<ellipse transform="matrix(0.3052 -0.9523 0.9523 0.3052 -277.0057 424.434)" style="fill:#FFFFFF;" cx="152.353" cy="402.043" rx="9.102" ry="9.102"/>
					</g>
				</g>
				<path style="fill:#133A47;" d="M219.478,306.913l-30.82-28.59l20.19,14.9c1.01,0.71,2.32-0.33,1.86-1.47l-18.89-56.33
					l22.68,57.18l6.68,13.02C221.738,306.703,220.368,307.733,219.478,306.913z"/>
			</g>
			<g>
				<g>
					<g>
						<path style="fill:#42B093;" d="M275.118,310.493c0,0.38-0.01,0.75-0.03,1.12c-0.04,0.54-0.1,1.09-0.19,1.62
							c-0.48,2.81-1.63,5.43-2.91,7.98c-0.23,0.46-0.45,0.91-0.69,1.36c-0.06,0.11-0.11,0.24-0.17,0.35
							c-1.51,2.92-3.03,5.83-4.53,8.75c-0.25,0.46-0.48,0.93-0.72,1.4c-1.88,3.7-3.71,7.42-5.38,11.21
							c-0.22,0.47-0.42,0.94-0.61,1.42c-1.04,2.39-2,4.82-2.85,7.28c-0.29,0.82-0.57,1.63-0.83,2.46c-0.13,0.43-0.27,0.85-0.4,1.28
							c-0.74,2.45-1.38,4.94-1.88,7.45c-0.09,0.45-0.18,0.9-0.25,1.35c-0.39,2.15-0.68,4.31-0.85,6.48
							c-0.03,0.41-0.06,0.83-0.08,1.25c-0.01,0.26-0.03,0.53-0.03,0.79c-0.16,3.6,0.02,7.2,0.63,10.76
							c0.04,0.28,0.09,0.55,0.14,0.83c-0.42-0.26-0.82-0.54-1.23-0.83c-4.75-3.36-8.48-7.98-11.15-13.2
							c-0.29-0.55-0.57-1.12-0.81-1.69c-1.22-2.6-2.16-5.34-2.84-8.12c-0.02-0.09-0.04-0.18-0.06-0.27c-0.13-0.5-0.24-1-0.35-1.52
							c-0.8-3.84-1.16-7.75-1.2-11.68c-0.01-0.51-0.01-1.01,0-1.51c0.03-4.13,0.41-8.25,1-12.34c0.1-0.57,0.18-1.14,0.27-1.71
							c0.01-0.07,0.02-0.14,0.03-0.2c0.59-3.69,1.36-7.38,2.49-10.95c0.15-0.48,0.31-0.96,0.47-1.43c1.03-2.97,2.34-5.84,4.05-8.49
							c0.87-1.34,1.86-2.64,2.95-3.85c0.27-0.31,0.57-0.63,0.88-0.94c1.59-1.62,3.38-3.05,5.31-4.2c0.33-0.19,0.65-0.38,0.99-0.55
							c2.38-1.27,4.96-2.11,7.67-2.37c2.1-0.22,4.32-0.02,6.31,0.67c0.35,0.12,0.69,0.25,1.01,0.4c1.03,0.47,1.99,1.09,2.8,1.88
							c0.21,0.2,0.41,0.41,0.6,0.63C274.358,305.313,275.088,307.903,275.118,310.493z"/>
						<path style="fill:#3B9E84;" d="M275.118,310.493c0,0.38-0.01,0.75-0.03,1.12c-0.04,0.54-0.1,1.09-0.19,1.62
							c-0.48,2.81-1.63,5.43-2.91,7.98c-0.23,0.46-0.45,0.91-0.69,1.36c-0.06,0.11-0.11,0.24-0.17,0.35
							c-1.51,2.92-3.03,5.83-4.53,8.75c-0.25,0.46-0.48,0.93-0.72,1.4c-1.88,3.7-3.71,7.42-5.38,11.21
							c-0.22,0.47-0.42,0.94-0.61,1.42c-1.04,2.39-2,4.82-2.85,7.28c-0.29,0.82-0.57,1.63-0.83,2.46c-0.13,0.43-0.27,0.85-0.4,1.28
							c-0.74,2.45-1.38,4.94-1.88,7.45c-0.09,0.45-0.18,0.9-0.25,1.35c-0.39,2.15-0.68,4.31-0.85,6.48
							c-0.03,0.41-0.06,0.83-0.08,1.25c-0.01,0.26-0.03,0.53-0.03,0.79c-0.25-0.47-0.48-0.94-0.68-1.41
							c-1.22-2.6-2.16-5.34-2.84-8.12c-0.02-0.09-0.04-0.18-0.06-0.28c-0.12-0.5-0.24-1-0.35-1.51c-0.8-3.84-1.15-7.75-1.19-11.68
							c-0.01-0.51-0.01-1.01,0-1.51c0.03-4.13,0.4-8.26,1-12.34c0.09-0.57,0.17-1.14,0.26-1.72c0.01-0.06,0.02-0.13,0.03-0.19
							c0.6-3.69,1.36-7.39,2.49-10.95c0.15-0.48,0.31-0.96,0.47-1.43c1.04-2.97,2.34-5.84,4.05-8.49c0.87-1.35,1.86-2.64,2.95-3.85
							c0.28-0.31,0.57-0.63,0.88-0.94c1.59-1.62,3.38-3.05,5.31-4.21c0.33-0.18,0.65-0.37,0.99-0.55c1.9-1.01,3.93-1.74,6.05-2.13
							c0.21,0.2,0.41,0.41,0.6,0.63C274.358,305.313,275.088,307.903,275.118,310.493z"/>
						<path style="fill:#225C4D;" d="M255.768,320.216c-1.399,2.809-2.625,5.699-3.687,8.651c6.639-2.543,13.278-5.096,19.906-7.65
							c-0.225,0.46-0.449,0.909-0.684,1.358c-6.435,2.472-12.859,4.943-19.283,7.405c-0.133,0.051-0.235,0.041-0.327,0.01
							c-1.011,2.972-1.849,6.016-2.482,9.111c5.791-2.482,11.592-4.954,17.383-7.425c-0.245,0.46-0.48,0.929-0.715,1.399
							c-5.628,2.41-11.255,4.811-16.893,7.221c-0.623,3.319-1.021,6.659-1.226,9.999c4.249-2.002,8.487-4.004,12.736-6.016
							c-0.215,0.47-0.419,0.94-0.613,1.42c-4.055,1.91-8.099,3.83-12.154,5.74c0,0-0.01,0-0.02,0.01
							c-0.112,2.564-0.102,5.138,0.031,7.711c2.819-1.246,5.638-2.482,8.467-3.718c-0.133,0.429-0.265,0.848-0.398,1.277
							c-2.604,1.144-5.199,2.288-7.803,3.432c0,0,0.01,0.01,0.02,0.02c0.255,0.286,0.102,0.654-0.153,0.807
							c0.163,2.155,0.409,4.31,0.735,6.455c1.777-1.083,3.544-2.176,5.321-3.258c-0.092,0.449-0.184,0.899-0.255,1.348l-4.892,2.993
							c0.01,0.051,0.02,0.092,0.031,0.143c0.184,0.174,0.204,0.409,0.112,0.613c0.276,1.532,0.592,3.054,0.95,4.576
							c0.981-0.613,1.971-1.236,2.952-1.849c-0.031,0.419-0.061,0.837-0.082,1.256c-0.868,0.541-1.736,1.093-2.604,1.634
							c0.848,3.36,1.92,6.68,3.207,9.917c0.041,0.276,0.092,0.551,0.143,0.827c-0.419-0.266-0.827-0.541-1.236-0.827
							c-1.113-2.85-2.063-5.76-2.86-8.712h-0.031c-2.799-1.409-5.556-2.901-8.253-4.494c-0.296-0.551-0.572-1.113-0.817-1.685
							c2.839,1.706,5.73,3.309,8.681,4.821c-0.01-0.061-0.02-0.123,0-0.174c-0.449-1.777-0.807-3.575-1.134-5.372
							c-3.483-2.564-6.966-5.117-10.448-7.67c-0.123-0.501-0.235-1.001-0.347-1.512c3.514,2.574,7.027,5.158,10.54,7.732
							c-0.398-2.482-0.684-4.974-0.858-7.476c-3.626-3.983-7.252-7.966-10.877-11.94c-0.01-0.511-0.01-1.011,0-1.512
							c3.595,3.942,7.19,7.885,10.775,11.827c-0.082-1.9-0.112-3.799-0.061-5.699c-0.133-0.02-0.245-0.102-0.327-0.255
							c-3.125-6.077-6.251-12.144-9.386-18.211c0.092-0.572,0.174-1.144,0.266-1.716c3.166,6.149,6.343,12.297,9.509,18.456
							c0.174-3.656,0.603-7.303,1.307-10.908c-2.768-6.23-5.536-12.461-8.294-18.691c0.143-0.48,0.307-0.96,0.47-1.43l8.181,18.425
							c0.603-2.747,1.338-5.464,2.216-8.12c-1.134-7.548-2.278-15.096-3.401-22.643c0.276-0.317,0.572-0.633,0.878-0.94
							c1.083,7.17,2.155,14.34,3.238,21.52c0.95-2.625,2.022-5.199,3.227-7.711c-0.02-0.061-0.041-0.112-0.041-0.174
							c-0.378-5.954-0.746-11.899-1.113-17.843c0.327-0.184,0.654-0.378,0.991-0.552c0.347,5.597,0.694,11.194,1.042,16.791
							c3.422-6.71,7.772-12.951,12.941-18.486c0.347,0.123,0.684,0.255,1.011,0.398c-5.035,5.352-9.356,11.409-12.767,17.925
							c6.2-2.768,12.41-5.526,18.609-8.283c0,0.378-0.01,0.746-0.031,1.123C268.647,314.476,262.202,317.346,255.768,320.216z"/>
					</g>
					<g>
						<path style="fill:#42B093;" d="M292.838,353.163c-0.14,0.25-0.3,0.47-0.47,0.69c-0.35,0.43-0.75,0.8-1.2,1.14
							c-2.65,2.04-6.72,2.79-8.01,5.9c-0.35,0.84-0.44,1.7-0.36,2.58c0.02,0.33,0.07,0.68,0.14,1.03c0.38,1.94,1.31,3.93,1.62,5.91
							c0.16,1.04,0.14,2.09-0.04,3.12c-0.05,0.33-0.11,0.66-0.2,0.99c-0.44,1.72-1.29,3.37-2.4,4.77c-0.22,0.28-0.46,0.55-0.7,0.82
							c-0.29,0.31-0.59,0.61-0.89,0.89c-1.75,1.64-3.84,2.89-6.02,3.9c-2.99,1.38-6.37,2.26-9.66,2.31
							c-1.35,0.02-2.68-0.1-3.97-0.38c-0.34-0.08-0.68-0.16-1.02-0.26c-1.37-0.4-2.69-1-3.9-1.84c-3.9-2.67-6.07-7.31-6.89-11.97
							c-0.89-5.02-0.24-10.63,3.13-14.47c1.01-1.14,2.22-2.1,3.5-3c0.28-0.21,0.57-0.41,0.87-0.61c1.55-1.07,3.15-2.09,4.5-3.32
							c0.29-0.24,0.55-0.5,0.81-0.76c0.75-0.81,1.41-1.7,1.89-2.74c1.13-2.47,1.01-5.31,1.26-8.03c0.06-0.72,0.18-1.47,0.34-2.19
							c0.15-0.63,0.34-1.24,0.57-1.82c0.53-1.27,1.32-2.38,2.47-3.11c1.17-0.74,2.54-0.98,3.92-1.19c0.33-0.06,0.66-0.11,1-0.16
							c0.84-0.15,1.69-0.33,2.47-0.67c1.05-0.45,1.95-1.14,2.78-1.93c0.3-0.28,0.6-0.59,0.89-0.9c0.78-0.82,1.53-1.7,2.33-2.5
							c1.91-1.9,4.77-3.45,7.21-2.3h0.01c0.31,0.15,0.6,0.32,0.87,0.52c1.95,1.46,2.92,4.32,2.44,6.71
							c-0.11,0.56-0.21,1.13-0.3,1.69c-0.15,0.93-0.26,1.85-0.33,2.77c-0.04,0.37-0.06,0.76-0.07,1.14
							c-0.12,3.04,0.21,6.04,1.18,8.94c0.11,0.32,0.22,0.64,0.34,0.97c0.18,0.47,0.38,0.93,0.59,1.39
							C294.398,349.043,293.848,351.393,292.838,353.163z"/>
						<path style="fill:#3B9E84;" d="M292.838,353.163c-0.14,0.25-0.3,0.47-0.47,0.69c-0.35,0.43-0.75,0.8-1.2,1.14
							c-2.65,2.04-6.72,2.79-8.01,5.9c-0.35,0.84-0.44,1.7-0.36,2.58c0.02,0.33,0.07,0.68,0.14,1.03c0.38,1.94,1.31,3.93,1.62,5.91
							c0.16,1.04,0.14,2.09-0.04,3.12c-0.05,0.33-0.11,0.66-0.2,0.99c-0.44,1.72-1.29,3.37-2.4,4.77c-0.22,0.28-0.46,0.55-0.7,0.82
							c-0.29,0.31-0.59,0.61-0.89,0.89c-1.75,1.64-3.84,2.89-6.02,3.9c-2.99,1.38-6.37,2.26-9.66,2.31c-2.18-2.62-3.49-6-4.08-9.39
							c-0.89-5.02-0.24-10.63,3.13-14.47c1-1.15,2.22-2.11,3.5-3c0.28-0.21,0.57-0.41,0.86-0.61c1.56-1.07,3.16-2.09,4.51-3.32
							c0.28-0.24,0.55-0.5,0.8-0.76c0.76-0.81,1.41-1.7,1.89-2.74c1.14-2.47,1.02-5.31,1.27-8.03c0.06-0.72,0.17-1.47,0.34-2.19
							c0.15-0.63,0.33-1.24,0.57-1.82c0.53-1.27,1.32-2.38,2.47-3.11c1.17-0.74,2.53-0.98,3.91-1.19c0.34-0.06,0.67-0.11,1-0.16
							c0.85-0.15,1.7-0.33,2.48-0.67c1.05-0.45,1.95-1.14,2.77-1.93c0.31-0.29,0.61-0.59,0.9-0.9c0.29-0.31,0.58-0.62,0.86-0.94
							c-0.15,0.93-0.26,1.85-0.33,2.77c-0.04,0.37-0.06,0.76-0.07,1.14c-0.12,3.04,0.21,6.04,1.18,8.94
							c0.11,0.32,0.22,0.64,0.34,0.97c0.18,0.47,0.38,0.93,0.59,1.39C294.398,349.043,293.848,351.393,292.838,353.163z"/>
						<path style="fill:#225C4D;" d="M275.412,354.707c5.669,0.031,11.327-0.245,16.955-0.858c-0.347,0.429-0.746,0.807-1.195,1.144
							c-5.301,0.531-10.632,0.776-15.984,0.735c-0.082,0-0.153-0.021-0.225-0.051c-1.052,2.288-2.094,4.576-3.146,6.863l10.98,0.93
							c0.02,0.337,0.071,0.684,0.143,1.032c-3.83-0.327-7.67-0.654-11.5-0.97c-0.031-0.01-0.041-0.02-0.071-0.02l-2.717,5.914
							c0.072,0.245-0.051,0.429-0.235,0.511c-0.174,0.398-0.358,0.786-0.531,1.174c5.536,0.807,11.092,1.614,16.638,2.421
							c-0.051,0.337-0.112,0.664-0.204,0.991c-5.628-0.817-11.245-1.634-16.883-2.451l-2.594,5.668
							c0.072-0.02,0.143-0.031,0.225-0.02c5.383,0.797,10.765,1.593,16.148,2.39c-0.286,0.317-0.582,0.613-0.889,0.899
							c-5.178-0.766-10.357-1.532-15.525-2.298c-0.163-0.02-0.255-0.102-0.317-0.194c-1.266,2.768-2.543,5.536-3.81,8.314
							c-0.981,2.124-1.951,4.259-2.931,6.383c-0.276,0.592-1.154,0.072-0.889-0.521c0.94-2.043,1.879-4.075,2.809-6.118
							c1.41-3.044,2.809-6.098,4.208-9.151c-0.031-0.041-0.061-0.072-0.082-0.123c-2.758-7.333-5.536-14.677-8.293-22.01
							c0.286-0.204,0.572-0.409,0.868-0.603c2.686,7.16,5.383,14.319,8.079,21.469c1.042-2.257,2.083-4.514,3.115-6.782
							c-2.227-5.995-4.453-12.001-6.69-18.007c0.286-0.245,0.552-0.5,0.807-0.766c2.155,5.822,4.32,11.643,6.486,17.465
							c1.113-2.421,2.227-4.841,3.33-7.262c-2.104-7.721-4.208-15.443-6.322-23.164c0.153-0.623,0.337-1.236,0.572-1.818
							c2.145,7.844,4.269,15.688,6.414,23.532c1.358-2.941,2.707-5.883,4.055-8.835c-0.061-0.051-0.112-0.123-0.133-0.235
							c-1.318-6.251-2.635-12.512-3.953-18.762c0.337-0.061,0.664-0.112,1.001-0.163c1.246,5.914,2.502,11.817,3.748,17.731
							c1.195-2.604,2.39-5.209,3.585-7.813c-0.122-0.051-0.214-0.153-0.245-0.327c-0.613-4.065-1.226-8.12-1.838-12.185
							c0.306-0.286,0.603-0.592,0.899-0.899c0.603,4.014,1.205,8.028,1.808,12.042c2.574-5.607,5.158-11.235,7.732-16.842h0.01
							c0.306,0.143,0.592,0.317,0.868,0.521c-2.288,4.994-4.586,9.989-6.874,14.973c2.891-1.266,5.791-2.533,8.682-3.81
							c-0.041,0.378-0.061,0.766-0.071,1.144c-3.085,1.358-6.159,2.706-9.243,4.055c-1.124,2.451-2.247,4.892-3.37,7.344
							c4.596-0.827,9.192-1.644,13.799-2.461c0.102,0.327,0.214,0.643,0.337,0.97c-4.739,0.848-9.488,1.696-14.238,2.533
							c-0.133,0.031-0.255,0-0.347-0.061C277.373,350.418,276.392,352.563,275.412,354.707z"/>
					</g>
					<g>
						<path style="fill:#42B093;" d="M256.478,382.223c-0.43,1.08-1.01,2.11-1.76,3.02c-0.74,0.9-1.61,1.65-2.58,2.25
							c-0.23,0.15-0.47,0.29-0.71,0.42c-3.18,1.71-7.19,2.06-10.83,1.5c-1.88-0.29-3.75-0.79-5.44-1.66
							c-0.3-0.15-0.59-0.31-0.87-0.49c-0.25-0.15-0.49-0.3-0.72-0.47c-1.16-0.83-2.16-1.9-2.87-3.12c-0.14-0.23-0.26-0.46-0.38-0.71
							c-0.35-0.75-0.6-1.54-0.7-2.37c-0.2-1.58,0.08-3.3-0.06-4.87c-0.02-0.28-0.06-0.55-0.11-0.81c-0.13-0.69-0.39-1.33-0.84-1.89
							c-1.67-2.1-4.93-1.78-7.4-2.76c-0.42-0.16-0.81-0.36-1.17-0.61c-0.18-0.13-0.34-0.26-0.5-0.42c-1.16-1.13-2.1-2.81-1.85-4.41
							c0.07-0.39,0.12-0.79,0.15-1.19c0.03-0.27,0.04-0.54,0.05-0.81c0.11-2.43-0.29-4.78-1.05-7.08c-0.09-0.29-0.19-0.58-0.3-0.86
							c-0.41-1.09-0.9-2.19-1.46-3.26c-0.88-1.72-0.77-4.11,0.4-5.65c0.17-0.22,0.35-0.41,0.55-0.59h0.01
							c1.29-1.13,3.17-0.99,4.82-0.37c0.41,0.16,0.81,0.35,1.18,0.55c0.79,0.43,1.55,0.94,2.33,1.4c0.29,0.17,0.58,0.34,0.88,0.49
							c0.8,0.42,1.64,0.76,2.54,0.87c0.67,0.09,1.35,0.04,2.03-0.03c0.27-0.04,0.53-0.07,0.8-0.1c1.1-0.13,2.2-0.25,3.25,0.06
							c1.04,0.3,1.88,0.98,2.56,1.83c0.31,0.39,0.58,0.82,0.84,1.26c0.28,0.52,0.53,1.07,0.73,1.61c0.79,2.01,1.32,4.21,2.72,5.85
							c0.59,0.69,1.29,1.22,2.04,1.67c0.25,0.15,0.51,0.29,0.78,0.41c1.3,0.64,2.75,1.07,4.16,1.55c0.27,0.09,0.54,0.18,0.8,0.27
							c1.17,0.41,2.31,0.88,3.32,1.53c3.41,2.2,5.13,6.34,5.55,10.37C257.638,377.163,257.418,379.853,256.478,382.223z"/>
						<path style="fill:#3B9E84;" d="M256.478,382.223c-3.01,1.31-6.6,1.55-9.89,1.04c-1.88-0.29-3.75-0.79-5.44-1.66
							c-0.3-0.15-0.59-0.31-0.88-0.49c-0.24-0.15-0.48-0.3-0.71-0.47c-1.16-0.82-2.16-1.89-2.87-3.12
							c-0.15-0.22-0.26-0.46-0.38-0.71c-0.35-0.75-0.6-1.54-0.7-2.37c-0.2-1.58,0.08-3.3-0.06-4.86c-0.02-0.28-0.06-0.56-0.11-0.82
							c-0.13-0.69-0.39-1.33-0.84-1.89c-1.67-2.09-4.93-1.78-7.41-2.75c-0.41-0.16-0.8-0.37-1.16-0.62
							c-0.18-0.12-0.34-0.26-0.51-0.42c-1.15-1.12-2.09-2.81-1.84-4.4c0.07-0.4,0.11-0.79,0.15-1.19c0.02-0.28,0.04-0.55,0.05-0.82
							c0.1-2.42-0.29-4.78-1.05-7.08c-0.09-0.28-0.19-0.57-0.3-0.85c-0.41-1.1-0.9-2.19-1.46-3.26c-0.08-0.15-0.15-0.31-0.21-0.47
							c0.41,0.16,0.81,0.35,1.18,0.55c0.79,0.43,1.55,0.94,2.33,1.4c0.29,0.17,0.58,0.34,0.88,0.49c0.8,0.42,1.64,0.76,2.54,0.87
							c0.67,0.09,1.35,0.04,2.03-0.03c0.27-0.04,0.53-0.07,0.8-0.1c1.1-0.13,2.2-0.25,3.25,0.06c1.04,0.3,1.88,0.98,2.56,1.83
							c0.31,0.39,0.58,0.82,0.84,1.26c0.28,0.52,0.53,1.07,0.73,1.61c0.79,2.01,1.32,4.21,2.72,5.85c0.59,0.69,1.29,1.22,2.04,1.67
							c0.25,0.15,0.51,0.29,0.78,0.41c1.3,0.64,2.75,1.07,4.16,1.55c0.27,0.09,0.54,0.18,0.8,0.27c1.17,0.41,2.31,0.88,3.32,1.53
							c3.41,2.2,5.13,6.34,5.55,10.37C257.638,377.163,257.418,379.853,256.478,382.223z"/>
						<path style="fill:#225C4D;" d="M233.169,366.609c-4.32,1.26-8.698,2.284-13.127,3.045c0.359,0.252,0.745,0.453,1.162,0.612
							c4.162-0.751,8.284-1.727,12.36-2.926c0.062-0.018,0.112-0.049,0.16-0.088c1.302,1.517,2.596,3.035,3.898,4.552l-8.177,3.105
							c0.058,0.262,0.095,0.538,0.116,0.819c2.852-1.085,5.712-2.172,8.566-3.25c0.021-0.015,0.027-0.025,0.05-0.031l3.364,3.921
							c-0.001,0.203,0.133,0.316,0.291,0.339c0.219,0.266,0.445,0.522,0.662,0.781c-4.049,1.824-8.114,3.652-12.17,5.478
							c0.113,0.246,0.231,0.482,0.372,0.712c4.117-1.852,8.226-3.701,12.351-5.555l3.217,3.76c-0.059,0-0.116,0.008-0.176,0.033
							c-3.934,1.783-7.868,3.565-11.803,5.347c0.287,0.179,0.578,0.341,0.874,0.492c3.785-1.715,7.57-3.429,11.347-5.141
							c0.12-0.051,0.173-0.134,0.199-0.217c1.571,1.836,3.149,3.67,4.722,5.514c1.212,1.408,2.418,2.825,3.63,4.232
							c0.34,0.392,0.896-0.197,0.564-0.591c-1.163-1.354-2.324-2.7-3.479-4.057c-1.74-2.015-3.474-4.041-5.208-6.066
							c0.015-0.038,0.031-0.068,0.036-0.111c0.505-6.199,1.023-12.409,1.527-18.608c-0.263-0.094-0.526-0.187-0.794-0.271
							c-0.488,6.051-0.984,12.103-1.482,18.148c-1.288-1.495-2.575-2.991-3.857-4.496c0.391-5.062,0.78-10.131,1.177-15.203
							c-0.272-0.125-0.53-0.262-0.783-0.409c-0.374,4.913-0.757,9.829-1.139,14.745c-1.378-1.605-2.756-3.209-4.126-4.816
							c-0.079-6.352-0.158-12.704-0.229-19.059c-0.253-0.442-0.527-0.87-0.833-1.263c0.074,6.455,0.165,12.905,0.239,19.36
							c-1.679-1.949-3.349-3.9-5.022-5.858c0.036-0.052,0.059-0.118,0.05-0.208c-0.358-5.058-0.719-10.124-1.077-15.182
							c-0.271,0.027-0.531,0.059-0.8,0.094c0.339,4.785,0.669,9.565,1.008,14.35c-1.48-1.727-2.961-3.454-4.441-5.181
							c0.082-0.066,0.13-0.164,0.116-0.303c-0.419-3.236-0.836-6.465-1.255-9.701c-0.296-0.151-0.589-0.321-0.882-0.49
							c0.416,3.195,0.832,6.39,1.248,9.585c-3.188-3.718-6.388-7.449-9.576-11.167l-0.008,0.002
							c-0.203,0.176-0.383,0.371-0.549,0.587c2.836,3.313,5.68,6.623,8.513,9.928c-2.482-0.336-4.973-0.67-7.457-1.013
							c0.114,0.28,0.214,0.571,0.304,0.857c2.65,0.364,5.291,0.722,7.939,1.078c1.392,1.626,2.782,3.244,4.175,4.869
							c-3.688,0.371-7.374,0.751-11.068,1.132c-0.007,0.272-0.023,0.538-0.046,0.814c3.802-0.387,7.612-0.776,11.419-1.173
							c0.108-0.006,0.195-0.056,0.252-0.123C230.736,363.763,231.952,365.186,233.169,366.609z"/>
					</g>
				</g>
				<rect x="221.954" y="382.192" style="fill:#EE9170;" width="64.555" height="12.818"/>
				<polygon style="fill:#DB7F5E;" points="221.954,382.192 221.954,384.633 282.723,384.633 282.723,395.01 286.509,395.01 
					286.509,382.192 				"/>
				<polygon style="fill:#EE9170;" points="276.121,438.724 232.341,438.724 225.528,395.01 282.934,395.01 				"/>
				<polygon style="fill:#DB7F5E;" points="225.528,395.01 225.876,397.244 273.991,397.244 269.288,438.724 276.121,438.724 
					282.934,395.01 				"/>
			</g>
		</g>
		<g>
			<g>
				<path style="fill:#1D5569;" d="M253.505,61.276v81.611c0,0.401,0.324,0.725,0.725,0.725c0.401,0,0.725-0.324,0.725-0.725V61.276
					H253.505z"/>
			</g>
			<g>
				<rect x="247.389" y="136.963" style="fill:#174656;" width="13.683" height="11.791"/>
			</g>
			<g>
				<rect x="247.389" y="136.963" style="fill:#1D5569;" width="9.181" height="11.791"/>
			</g>
			<g>
				<path style="fill:#FCAF4B;" d="M272.004,163.622c0,9.817-7.961,17.778-17.778,17.778c-6.322,0-11.876-3.306-15.023-8.28
					c-1.74-2.741-2.741-6.003-2.741-9.498c0-9.817,7.947-17.778,17.764-17.778c2.378,0,4.655,0.464,6.729,1.32
					C267.436,149.817,272.004,156.183,272.004,163.622z"/>
			</g>
			<g>
				<path style="fill:#FCC14B;" d="M263.71,156.676c0,9.817-7.961,17.764-17.779,17.764c-2.378,0-4.655-0.464-6.729-1.32
					c-1.74-2.741-2.741-6.003-2.741-9.498c0-9.817,7.947-17.778,17.764-17.778c2.378,0,4.655,0.464,6.729,1.32
					C262.694,149.918,263.71,153.181,263.71,156.676z"/>
			</g>
			<g>
				<path style="fill:#FFFFFF;" d="M245.761,156.957c-1.181,2.095-3.068,3.27-4.215,2.623c-1.147-0.646-1.12-2.869,0.061-4.964
					c1.181-2.095,3.068-3.27,4.215-2.623C246.969,152.639,246.942,154.862,245.761,156.957z"/>
			</g>
		</g>
	</g>
</g>
<g id="DESIGNED_BY_FREEPIK">
	<g>
		<g id="XMLID_57_">
			<g id="XMLID_76_">
				<path id="XMLID_84_" style="fill:#102028;" d="M260.104,465.465c-0.432,0.443-0.803,0.931-1.108,1.453l-0.465-0.241
					c-0.067-0.298-0.349-0.503-0.659-0.466c-0.331,0.039-0.568,0.339-0.529,0.67s0.339,0.568,0.67,0.529
					c0.065-0.008,0.127-0.026,0.184-0.052l0.451,0.234c-0.251,0.554-0.433,1.139-0.539,1.744l0.746,0.132
					c0.23-1.306,0.85-2.507,1.792-3.473L260.104,465.465z"/>
				<path id="XMLID_83_" style="fill:#102028;" d="M265.592,463.163c-0.171,0-0.341,0.006-0.51,0.017l-0.074-0.626
					c0.188-0.149,0.296-0.389,0.266-0.645c-0.046-0.393-0.402-0.674-0.795-0.628s-0.674,0.402-0.628,0.795
					c0.03,0.254,0.189,0.461,0.405,0.564l0.073,0.624c-0.714,0.116-1.403,0.332-2.06,0.646l0.327,0.684
					c0.934-0.447,1.942-0.673,2.995-0.673c0.496,0,0.993,0.053,1.475,0.158l0.161-0.741
					C266.693,463.222,266.142,463.163,265.592,463.163z"/>
				<path id="XMLID_82_" style="fill:#102028;" d="M272.194,465.711c0.331-0.04,0.566-0.341,0.525-0.672
					c-0.04-0.331-0.341-0.566-0.672-0.526c-0.309,0.038-0.535,0.304-0.53,0.609l-0.416,0.363c-0.418-0.43-0.89-0.813-1.408-1.139
					l-0.404,0.641c1.134,0.715,2.021,1.726,2.563,2.925l0.69-0.313c-0.251-0.554-0.568-1.072-0.942-1.545l0.402-0.351
					C272.065,465.716,272.129,465.719,272.194,465.711z"/>
				<path id="XMLID_81_" style="fill:#102028;" d="M265.044,473.372c-0.386,0.023-0.775,0.035-1.157,0.035
					c-0.88,0-1.733-0.061-2.478-0.179c-0.39-0.062-0.846-0.155-1.27-0.292c1.046,1.861,3.069,3.125,5.388,3.125
					c2.855,0,5.262-1.916,5.95-4.504c-0.682,0.449-1.505,0.825-2.459,1.123C267.839,473.047,266.464,473.286,265.044,473.372z"/>
				<path id="XMLID_77_" style="fill:#102028;" d="M265.592,464.68c-3.352,0-6.08,2.666-6.08,5.943c0,0.426,0.046,0.849,0.137,1.261
					c0.674,0.483,2.706,0.89,5.348,0.731c2.879-0.173,5.297-0.957,6.672-2.159c-0.005-0.195-0.021-0.39-0.045-0.582
					C271.244,466.913,268.65,464.68,265.592,464.68z M263.432,471.194c-1.02,0-1.85-0.83-1.85-1.85c0-1.02,0.83-1.85,1.85-1.85
					c1.02,0,1.85,0.83,1.85,1.85C265.282,470.365,264.452,471.194,263.432,471.194z M268.17,470.286c-0.75,0-1.36-0.61-1.36-1.36
					s0.61-1.361,1.36-1.361c0.75,0,1.361,0.61,1.361,1.361S268.92,470.286,268.17,470.286z"/>
			</g>
			<path id="XMLID_74_" style="fill:#102028;" d="M281.595,466.547c-0.295-0.116-0.806-0.309-1.382-0.237
				c-0.551,0.069-0.844,0.341-0.844,1.007v0.866h2.228v1.717h-2.228v5.455h-1.932v-5.455h-1.34v-1.717h1.34v-0.888
				c0-1.68,0.895-2.783,2.568-2.783c0.642,0,1.157,0.122,1.59,0.308L281.595,466.547z"/>
			<path id="XMLID_72_" style="fill:#102028;" d="M286.298,469.879c-0.177-0.03-0.358-0.046-0.526-0.046
				c-0.896,0-1.51,0.548-1.51,1.614v3.908h-1.932v-7.172h1.873v0.785c0.451-0.673,1.14-0.977,2.021-0.977
				c0.414,0,0.848,0.128,1.094,0.337L286.298,469.879z"/>
			<path id="XMLID_69_" style="fill:#102028;" d="M293.965,471.757c0,0.222-0.015,0.489-0.037,0.651h-5.085
				c0.207,1.036,0.933,1.488,1.843,1.488c0.622,0,1.295-0.252,1.813-0.688l1.133,1.243c-0.814,0.748-1.85,1.088-3.057,1.088
				c-2.198,0-3.723-1.495-3.723-3.753c0-2.258,1.48-3.797,3.626-3.797C292.544,467.99,293.958,469.522,293.965,471.757z
				 M288.851,471.091h3.175c-0.178-0.918-0.733-1.436-1.562-1.436C289.554,469.655,289.021,470.203,288.851,471.091z"/>
			<path id="XMLID_66_" style="fill:#102028;" d="M301.618,471.757c0,0.222-0.015,0.489-0.037,0.651h-5.085
				c0.207,1.036,0.932,1.488,1.843,1.488c0.622,0,1.295-0.252,1.813-0.688l1.132,1.243c-0.814,0.748-1.85,1.088-3.057,1.088
				c-2.198,0-3.723-1.495-3.723-3.753c0-2.258,1.48-3.797,3.627-3.797C300.197,467.99,301.611,469.522,301.618,471.757z
				 M296.504,471.091h3.175c-0.178-0.918-0.733-1.436-1.562-1.436C297.207,469.655,296.674,470.203,296.504,471.091z"/>
			<path id="XMLID_63_" style="fill:#102028;" d="M309.964,471.764c0,2.154-1.495,3.775-3.471,3.775
				c-0.962,0-1.643-0.378-2.109-0.933v3.708h-1.924v-10.133h1.887v0.792c0.466-0.585,1.155-0.984,2.139-0.984
				C308.469,467.99,309.964,469.61,309.964,471.764z M304.287,471.764c0,1.132,0.747,1.976,1.843,1.976
				c1.14,0,1.85-0.881,1.85-1.976c0-1.095-0.711-1.976-1.85-1.976C305.035,469.788,304.287,470.632,304.287,471.764z"/>
			<path id="XMLID_60_" style="fill:#102028;" d="M313.068,465.836c0,0.696-0.54,1.229-1.236,1.229
				c-0.696,0-1.229-0.533-1.229-1.229c0-0.696,0.533-1.243,1.229-1.243C312.527,464.592,313.068,465.14,313.068,465.836z
				 M312.809,475.354h-1.932v-7.172h1.932V475.354z"/>
			<path id="XMLID_58_" style="fill:#102028;" d="M316.032,470.736l2.702-2.554h2.368l-3.479,3.375l3.501,3.797h-2.376l-2.716-2.901
				v2.901H314.1v-10.658h1.932V470.736z"/>
		</g>
		<g>
			<path style="fill:#102028;" d="M184.412,475.289v-1.055c-0.527,0.718-1.391,1.23-2.387,1.23c-1.846,0-3.149-1.406-3.149-3.706
				c0-2.256,1.289-3.721,3.149-3.721c0.952,0,1.816,0.469,2.387,1.245v-3.765h1.099v9.77H184.412z M184.412,473.37v-3.208
				c-0.395-0.615-1.245-1.143-2.124-1.143c-1.421,0-2.27,1.172-2.27,2.739c0,1.567,0.85,2.724,2.27,2.724
				C183.168,474.483,184.017,473.986,184.412,473.37z"/>
			<path style="fill:#102028;" d="M186.932,471.744c0-2.051,1.465-3.706,3.486-3.706c2.139,0,3.398,1.67,3.398,3.794v0.279h-5.727
				c0.088,1.333,1.025,2.446,2.549,2.446c0.806,0,1.626-0.322,2.182-0.894l0.527,0.718c-0.703,0.703-1.655,1.084-2.812,1.084
				C188.441,475.465,186.932,473.956,186.932,471.744z M190.404,468.947c-1.509,0-2.256,1.274-2.314,2.358h4.643
				C192.718,470.25,192.015,468.947,190.404,468.947z"/>
			<path style="fill:#102028;" d="M194.607,474.351l0.571-0.791c0.469,0.542,1.362,1.011,2.329,1.011c1.084,0,1.67-0.513,1.67-1.216
				c0-1.714-4.38-0.659-4.38-3.281c0-1.098,0.952-2.036,2.636-2.036c1.201,0,2.051,0.454,2.622,1.026l-0.513,0.762
				c-0.424-0.513-1.201-0.894-2.109-0.894c-0.967,0-1.567,0.483-1.567,1.113c0,1.552,4.38,0.527,4.38,3.281
				c0,1.187-0.952,2.138-2.783,2.138C196.306,475.465,195.325,475.113,194.607,474.351z"/>
			<path style="fill:#102028;" d="M201.477,466.471c0-0.41,0.337-0.747,0.732-0.747c0.41,0,0.747,0.337,0.747,0.747
				c0,0.41-0.337,0.732-0.747,0.732C201.814,467.203,201.477,466.881,201.477,466.471z M201.667,475.289v-7.075h1.099v7.075H201.667
				z"/>
			<path style="fill:#102028;" d="M204.582,477.105l0.556-0.82c0.586,0.703,1.289,0.967,2.3,0.967c1.172,0,2.27-0.571,2.27-2.124
				v-1.011c-0.513,0.718-1.377,1.26-2.373,1.26c-1.845,0-3.149-1.377-3.149-3.662c0-2.27,1.289-3.677,3.149-3.677
				c0.952,0,1.802,0.469,2.373,1.245v-1.069h1.099v6.87c0,2.344-1.641,3.076-3.369,3.076
				C206.237,478.16,205.417,477.926,204.582,477.105z M209.709,473.253v-3.091c-0.381-0.615-1.23-1.143-2.109-1.143
				c-1.421,0-2.27,1.128-2.27,2.695c0,1.553,0.849,2.695,2.27,2.695C208.478,474.41,209.328,473.868,209.709,473.253z"/>
			<path style="fill:#102028;" d="M217.413,475.289v-4.629c0-1.245-0.63-1.641-1.582-1.641c-0.865,0-1.685,0.527-2.095,1.099v5.17
				h-1.099v-7.075h1.099v1.025c0.498-0.586,1.464-1.201,2.519-1.201c1.48,0,2.256,0.747,2.256,2.285v4.966H217.413z"/>
			<path style="fill:#102028;" d="M219.932,471.744c0-2.051,1.465-3.706,3.486-3.706c2.139,0,3.398,1.67,3.398,3.794v0.279h-5.727
				c0.088,1.333,1.025,2.446,2.549,2.446c0.806,0,1.626-0.322,2.183-0.894l0.527,0.718c-0.703,0.703-1.655,1.084-2.812,1.084
				C221.441,475.465,219.932,473.956,219.932,471.744z M223.404,468.947c-1.509,0-2.256,1.274-2.314,2.358h4.643
				C225.718,470.25,225.015,468.947,223.404,468.947z"/>
			<path style="fill:#102028;" d="M233.35,475.289v-1.055c-0.527,0.718-1.392,1.23-2.388,1.23c-1.846,0-3.149-1.406-3.149-3.706
				c0-2.256,1.289-3.721,3.149-3.721c0.952,0,1.817,0.469,2.388,1.245v-3.765h1.098v9.77H233.35z M233.35,473.37v-3.208
				c-0.396-0.615-1.245-1.143-2.124-1.143c-1.421,0-2.27,1.172-2.27,2.739c0,1.567,0.849,2.724,2.27,2.724
				C232.105,474.483,232.954,473.986,233.35,473.37z"/>
			<path style="fill:#102028;" d="M239.692,475.289v-9.77h1.098v3.765c0.572-0.776,1.421-1.245,2.388-1.245
				c1.845,0,3.149,1.465,3.149,3.721c0,2.299-1.304,3.706-3.149,3.706c-0.996,0-1.86-0.513-2.388-1.23v1.055H239.692z
				 M242.9,474.483c1.436,0,2.286-1.157,2.286-2.724c0-1.568-0.85-2.739-2.286-2.739c-0.864,0-1.728,0.527-2.109,1.143v3.208
				C241.171,473.986,242.036,474.483,242.9,474.483z"/>
			<path style="fill:#102028;" d="M247.529,477.061c0.161,0.073,0.425,0.117,0.601,0.117c0.483,0,0.805-0.161,1.055-0.747
				l0.469-1.069l-2.959-7.148h1.187l2.358,5.8l2.344-5.8h1.201l-3.545,8.51c-0.425,1.025-1.143,1.421-2.08,1.435
				c-0.234,0-0.601-0.044-0.805-0.103L247.529,477.061z"/>
		</g>
	</g>
</g>
</svg>
