<?xml version="1.0" encoding="utf-8"?>
<!-- Generator: Adobe Illustrator 27.5.0, SVG Export Plug-In . SVG Version: 6.00 Build 0)  -->
<svg version="1.1" xmlns="http://www.w3.org/2000/svg" xmlns:xlink="http://www.w3.org/1999/xlink" x="0px" y="0px"
	 viewBox="0 0 500 500" style="enable-background:new 0 0 500 500;" xml:space="preserve">
<g id="BACKGROUND">
</g>
<g id="OBJECTS">
	<g>
		<g>
			<g>
				<path style="fill:#3B9E84;" d="M116.996,299.88c-0.021,0.932-0.083,1.865-0.187,2.787c-1.015,10.568-5.491,20.867-12.993,28.348
					c-7.305,7.294-17.199,11.594-27.436,12.672c-0.58,0.073-1.16,0.124-1.72,0.155c-3.782,0.28-7.595,0.124-11.325-0.497
					c-6.186-0.995-12.154-3.243-17.386-6.755c-7.501-5.056-13.148-12.516-16.484-20.888c-0.311-0.839-0.632-1.678-0.902-2.528
					c-1.73-5.108-2.59-10.516-2.549-15.894c0-0.632,0.021-1.264,0.062-1.886c0.249-4.984,1.306-9.895,3.243-14.516
					c0.352-0.808,0.725-1.627,1.109-2.435c0.228-0.518,0.487-1.015,0.725-1.513c2.083-4.248,4.445-8.475,5.761-12.817
					c0.187-0.559,0.332-1.129,0.466-1.699c0.591-2.528,0.767-5.098,0.301-7.719c-0.197-1.078-0.497-2.124-0.891-3.15
					c-0.269-0.736-0.601-1.471-0.953-2.196l-0.021-0.01c-2.145-4.403-5.522-8.423-7.781-12.661
					c-0.321-0.622-0.622-1.223-0.901-1.855c-1.047-2.383-1.658-4.859-1.44-7.543c0.176-2.072,0.87-3.948,1.969-5.585
					c0.259-0.414,0.56-0.818,0.881-1.202c0.383-0.487,0.829-0.933,1.306-1.368c4.393-4.103,11.511-5.906,17.583-4.466
					c0.881,0.218,1.761,0.466,2.601,0.777c0.559,0.197,1.119,0.414,1.668,0.642c6.517,2.777,11.957,7.916,17.013,13.158
					c0.477,0.487,0.953,0.964,1.43,1.471c0.083,0.073,0.145,0.155,0.238,0.238c8.724,9.097,10.195,14.495,17.531,22.898
					c0.383,0.435,0.787,0.891,1.212,1.368c0.425,0.446,0.85,0.912,1.305,1.378c3.647,3.823,13.345,8.475,19.085,16.567
					c0.166,0.228,0.332,0.466,0.487,0.705c0.342,0.497,0.653,0.984,0.953,1.492C115.4,282.65,117.359,291.28,116.996,299.88z"/>
				<path style="fill:#42B093;" d="M89.146,303.548c-0.021,0.932-0.083,1.855-0.187,2.777c-1.015,10.579-5.491,20.878-12.993,28.348
					c-3.657,3.647-7.957,6.548-12.63,8.672c-6.186-0.995-12.154-3.243-17.386-6.755c-7.501-5.056-13.148-12.516-16.484-20.888
					c-0.311-0.839-0.632-1.678-0.902-2.528c-1.73-5.108-2.59-10.516-2.549-15.894c0-0.632,0.021-1.264,0.062-1.886
					c0.249-4.984,1.306-9.895,3.243-14.516c0.352-0.808,0.725-1.627,1.109-2.435c0.228-0.518,0.487-1.015,0.725-1.513
					c2.083-4.248,4.445-8.475,5.761-12.817c0.187-0.559,0.332-1.129,0.466-1.699c0.591-2.528,0.767-5.098,0.301-7.719
					c-0.197-1.078-0.497-2.124-0.891-3.15c-0.269-0.736-0.601-1.471-0.953-2.196l-0.021-0.01c-2.145-4.403-5.522-8.423-7.781-12.661
					c-0.321-0.622-0.622-1.223-0.901-1.855c-1.047-2.383-1.658-4.859-1.44-7.543c0.176-2.072,0.87-3.948,1.969-5.585
					c4.88,2.901,9.159,7.025,13.2,11.2c0.477,0.487,0.953,0.974,1.43,1.471c0.083,0.083,0.145,0.166,0.238,0.249
					c8.714,9.087,10.195,14.495,17.531,22.888c0.383,0.445,0.777,0.901,1.212,1.368c0.425,0.445,0.85,0.922,1.295,1.388
					c3.657,3.823,13.345,8.465,19.095,16.557c0.166,0.238,0.331,0.466,0.487,0.715c0.331,0.487,0.642,0.984,0.953,1.492
					C87.55,286.317,89.498,294.948,89.146,303.548z"/>
				<path style="fill:#1F5E4F;" d="M74.25,342.955c0.128,0.288,0.27,0.586,0.411,0.884c0.561-0.024,1.141-0.075,1.717-0.15
					c-1.475-3.159-2.741-6.419-3.755-9.75c17.038-6.856,32.157-17.616,44.19-31.273c0.099-0.922,0.162-1.849,0.187-2.781
					c-12.046,14.213-27.414,25.371-44.834,32.433c-1.682-5.924-2.589-12.07-2.683-18.311c-0.025-1.693,0.02-3.399,0.078-5.095
					c16.221-7.914,30.352-19.363,41.392-33.552c-0.302-0.507-0.614-1.001-0.949-1.491c-10.779,13.981-24.552,25.289-40.42,33.16
					c0.254-6.935,0.92-13.853,1.285-20.773c0.084-0.064,0.168-0.129,0.243-0.239c7.089-9.635,13.121-19.946,18.012-30.807
					c-0.428-0.471-0.828-0.924-1.214-1.367c-4.628,10.353-10.281,20.194-16.904,29.438c0.127-3.528,0.148-7.047-0.049-10.572
					c-0.385-7.004-2.016-13.781-4.702-20.041c0.024-0.065,0.052-0.106,0.075-0.171c1.276-7.252,2.548-14.527,3.81-21.789
					c-0.469-0.499-0.948-0.985-1.427-1.471c-1.228,6.942-2.446,13.87-3.65,20.807c-3.162-6.542-7.496-12.485-12.756-17.479
					c0.038-0.116,0.062-0.241,0.049-0.371c-0.564-5.369-0.781-10.744-0.659-16.113c-0.55-0.231-1.11-0.448-1.665-0.643
					c-0.107,5.197,0.083,10.373,0.561,15.542c-5.967-5.231-12.981-9.334-20.748-11.847c-0.471,0.428-0.915,0.874-1.303,1.359
					c11.224,3.461,21.343,10.373,28.57,19.647c-9.984-1.773-19.978-3.533-29.976-5.316c0.278,0.633,0.575,1.238,0.9,1.861
					c10.095,1.788,20.214,3.572,30.309,5.36c0.074,0.01,0.121,0.001,0.19-0.013c0.363,0.508,0.725,1.016,1.065,1.529
					c3.973,6.001,6.57,12.362,8.08,19.018c-10.61-4.398-21.224-8.818-31.848-13.225c0.356,0.726,0.69,1.456,0.953,2.2
					c10.18,4.228,20.346,8.446,30.526,12.673c0.287,0.113,0.519,0.069,0.71-0.064c1.213,5.99,1.591,12.202,1.36,18.566
					c-10.667-6.758-21.325-13.53-31.996-20.312c-0.143,0.569-0.286,1.139-0.467,1.703c10.792,6.842,21.56,13.689,32.352,20.532
					c-0.241,5.187-0.705,10.404-1.072,15.628c-12.343-7.772-24.704-15.576-37.047-23.348c-0.24,0.504-0.494,0.998-0.72,1.511
					c12.551,7.912,25.111,15.811,37.652,23.737c-0.337,5.627-0.507,11.245-0.033,16.836c-13.988-7.876-27.986-15.739-41.974-23.615
					c-0.037,0.621-0.06,1.252-0.06,1.878c13.988,7.876,27.972,15.729,41.946,23.596c0.097,0.066,0.199,0.094,0.31,0.109
					c0.096,0.812,0.146,1.633,0.265,2.441c0.898,5.979,2.512,11.735,4.74,17.241c-14.911-9.167-29.808-18.325-44.719-27.492
					c0.272,0.85,0.591,1.692,0.909,2.534c14.717,9.036,29.462,18.091,44.184,27.15C73.87,342.98,74.065,342.991,74.25,342.955z"/>
			</g>
			<g>
				<path style="fill:#3B9E84;" d="M476.965,301.219c0.041,0.622,0.062,1.254,0.062,1.886c0.042,5.377-0.819,10.786-2.549,15.894
					c-0.269,0.85-0.591,1.689-0.901,2.528c-3.336,8.372-8.983,15.832-16.484,20.888c-4.756,3.202-10.123,5.346-15.718,6.465
					c-4.258,0.85-8.651,1.109-12.993,0.788c-0.56-0.031-1.14-0.083-1.72-0.156c-10.237-1.077-20.132-5.377-27.436-12.671
					c-7.501-7.481-11.977-17.78-12.993-28.348c-0.104-0.922-0.166-1.855-0.187-2.787c-0.363-8.6,1.596-17.23,6.04-24.525
					c0.3-0.508,0.611-0.995,0.953-1.492c0.155-0.238,0.321-0.477,0.487-0.704c5.74-8.092,15.438-12.744,19.085-16.567
					c0.456-0.466,0.881-0.933,1.306-1.378c0.425-0.477,0.829-0.932,1.212-1.368c7.336-8.403,8.807-13.801,17.531-22.898
					c0.093-0.083,0.155-0.166,0.238-0.238c0.477-0.508,0.953-0.984,1.43-1.471c5.056-5.243,10.496-10.382,17.013-13.159
					c0.549-0.228,1.109-0.445,1.668-0.642c0.839-0.311,1.72-0.559,2.601-0.777c6.072-1.44,13.19,0.363,17.583,4.466
					c0.477,0.435,0.922,0.881,1.305,1.368c0.591,0.705,1.098,1.451,1.523,2.259c0.725,1.368,1.191,2.88,1.326,4.528
					c0.218,2.684-0.394,5.16-1.44,7.543c-0.28,0.632-0.58,1.233-0.901,1.855c-2.259,4.238-5.636,8.258-7.781,12.661l-0.021,0.01
					c-0.352,0.725-0.684,1.461-0.953,2.197c-0.394,1.026-0.694,2.072-0.891,3.15c-0.466,2.621-0.29,5.191,0.301,7.719
					c0.135,0.57,0.28,1.14,0.466,1.699c1.316,4.341,3.678,8.569,5.761,12.817c0.238,0.497,0.497,0.995,0.725,1.513
					c0.383,0.808,0.756,1.627,1.109,2.435C475.659,291.324,476.716,296.236,476.965,301.219z"/>
				<path style="fill:#42B093;" d="M476.965,301.219c0.041,0.622,0.062,1.254,0.062,1.886c0.042,5.377-0.819,10.786-2.549,15.894
					c-0.269,0.85-0.591,1.689-0.901,2.528c-3.336,8.372-8.983,15.832-16.484,20.888c-4.756,3.202-10.123,5.346-15.718,6.465
					c-4.435-2.093-8.517-4.901-11.998-8.382c-7.512-7.47-11.977-17.769-13.003-28.348c-0.093-0.922-0.156-1.844-0.186-2.777
					c-0.352-8.6,1.595-17.23,6.051-24.525c0.301-0.508,0.611-1.005,0.943-1.492c0.155-0.249,0.321-0.477,0.487-0.715
					c5.75-8.092,15.448-12.734,19.095-16.557c0.445-0.466,0.881-0.943,1.305-1.388c0.425-0.466,0.829-0.922,1.212-1.368
					c7.336-8.392,8.807-13.801,17.531-22.888c0.083-0.083,0.145-0.166,0.238-0.249c0.466-0.497,0.943-0.984,1.419-1.471
					c3.575-3.699,7.346-7.356,11.553-10.144c0.725,1.368,1.191,2.88,1.326,4.528c0.218,2.684-0.394,5.16-1.44,7.543
					c-0.28,0.632-0.58,1.233-0.901,1.855c-2.259,4.238-5.636,8.258-7.781,12.661l-0.021,0.01c-0.352,0.725-0.684,1.461-0.953,2.197
					c-0.394,1.026-0.694,2.072-0.891,3.15c-0.466,2.621-0.29,5.191,0.301,7.719c0.135,0.57,0.28,1.14,0.466,1.699
					c1.316,4.341,3.678,8.569,5.761,12.817c0.238,0.497,0.497,0.995,0.725,1.513c0.383,0.808,0.756,1.627,1.109,2.435
					C475.659,291.324,476.716,296.236,476.965,301.219z"/>
				<path style="fill:#1F5E4F;" d="M428.792,348.78c-0.128,0.288-0.269,0.586-0.411,0.884c-0.561-0.024-1.141-0.075-1.717-0.15
					c1.475-3.159,2.741-6.418,3.755-9.75c-17.038-6.856-32.157-17.616-44.19-31.273c-0.099-0.922-0.162-1.849-0.187-2.781
					c12.046,14.213,27.414,25.37,44.834,32.433c1.682-5.924,2.589-12.07,2.683-18.311c0.025-1.693-0.02-3.399-0.078-5.095
					c-16.221-7.914-30.352-19.363-41.392-33.551c0.302-0.508,0.614-1.001,0.949-1.491c10.779,13.981,24.552,25.289,40.42,33.16
					c-0.254-6.935-0.92-13.853-1.285-20.773c-0.084-0.064-0.168-0.129-0.243-0.239c-7.089-9.635-13.121-19.946-18.012-30.807
					c0.428-0.471,0.828-0.924,1.214-1.367c4.628,10.353,10.281,20.194,16.904,29.438c-0.127-3.528-0.148-7.047,0.049-10.572
					c0.386-7.004,2.016-13.781,4.702-20.042c-0.024-0.065-0.052-0.106-0.075-0.171c-1.276-7.252-2.548-14.527-3.81-21.789
					c0.469-0.499,0.948-0.985,1.427-1.471c1.228,6.942,2.446,13.87,3.65,20.807c3.162-6.542,7.496-12.485,12.756-17.479
					c-0.038-0.116-0.062-0.241-0.049-0.371c0.564-5.369,0.781-10.744,0.659-16.113c0.55-0.231,1.11-0.448,1.665-0.643
					c0.107,5.197-0.083,10.373-0.561,15.542c5.967-5.231,12.981-9.334,20.748-11.847c0.471,0.428,0.915,0.874,1.303,1.358
					c-11.224,3.461-21.343,10.373-28.57,19.647c9.984-1.773,19.978-3.533,29.976-5.315c-0.278,0.633-0.575,1.237-0.9,1.861
					c-10.095,1.788-20.214,3.572-30.309,5.36c-0.074,0.01-0.12,0.001-0.19-0.013c-0.363,0.508-0.725,1.016-1.065,1.529
					c-3.973,6.001-6.57,12.362-8.08,19.018c10.61-4.398,21.224-8.818,31.848-13.225c-0.356,0.726-0.69,1.456-0.953,2.2
					c-10.18,4.228-20.346,8.446-30.526,12.673c-0.287,0.113-0.519,0.069-0.71-0.064c-1.214,5.99-1.591,12.201-1.36,18.566
					c10.667-6.758,21.325-13.53,31.996-20.311c0.143,0.569,0.286,1.139,0.467,1.703c-10.792,6.842-21.56,13.689-32.352,20.532
					c0.241,5.187,0.705,10.405,1.072,15.628c12.343-7.772,24.704-15.576,37.047-23.348c0.24,0.504,0.494,0.998,0.72,1.511
					c-12.551,7.912-25.111,15.811-37.652,23.737c0.337,5.626,0.507,11.245,0.033,16.836c13.988-7.876,27.986-15.739,41.974-23.615
					c0.037,0.621,0.06,1.252,0.06,1.877c-13.988,7.876-27.972,15.729-41.947,23.596c-0.097,0.066-0.199,0.094-0.31,0.109
					c-0.096,0.812-0.146,1.633-0.265,2.441c-0.898,5.979-2.512,11.735-4.74,17.241c14.911-9.167,29.808-18.325,44.719-27.492
					c-0.272,0.85-0.591,1.692-0.909,2.533c-14.717,9.036-29.462,18.091-44.184,27.15
					C429.173,348.806,428.978,348.816,428.792,348.78z"/>
			</g>
		</g>
		<path style="fill:#EDECC7;" d="M478.642,346.612c-4.528-28.836-24.308-52.399-43.929-73.613
			c-19.621-21.214-40.621-42.988-48.726-70.991c-8.754-30.245-1.551-65.128-17.316-92.236
			c-12.917-22.213-39.018-33.689-64.258-34.82c-5.534-0.248-11.045-0.071-16.529,0.446c-25.191,2.374-50.577,2.374-75.768,0
			c-5.484-0.517-10.995-0.694-16.529-0.446c-25.24,1.131-51.341,12.607-64.258,34.82c-15.764,27.109-8.561,61.991-17.316,92.236
			c-8.105,28.004-29.105,49.777-48.726,70.991c-19.621,21.214-39.4,44.778-43.929,73.613c-1.05,6.687-1.195,13.384-0.548,19.992
			c4.071,41.598,38.98,72.913,79.845,72.913H250h149.345c40.865,0,75.774-31.315,79.845-72.913
			C479.837,359.996,479.692,353.299,478.642,346.612z"/>
		<g>
			
				<ellipse transform="matrix(0.1611 -0.9869 0.9869 0.1611 197.4512 408.2078)" style="fill:#1B3036;" cx="338.838" cy="87.961" rx="17.537" ry="17.537"/>
			
				<ellipse transform="matrix(0.7071 -0.7071 0.7071 0.7071 28.44 268.922)" style="fill:#FBBC3B;" cx="338.838" cy="100.131" rx="8.127" ry="8.127"/>
			<ellipse style="fill:#1B3036;" cx="338.838" cy="132.541" rx="39.694" ry="36.453"/>
			<g>
				<g>
					<g>
						<g>
							<path style="fill:#2B7894;" d="M365.961,167.957c-0.572,0-1.036-0.464-1.036-1.036s0.464-1.036,1.036-1.036
								c5.19,0,9.411-4.222,9.411-9.411v-14.462c0-9.854-4.066-19.503-11.156-26.474c-6.924-6.808-15.953-10.461-25.409-10.309
								c-19.482,0.329-35.331,16.453-35.331,35.943c0,0.572-0.464,1.036-1.036,1.036c-0.572,0-1.036-0.464-1.036-1.036
								c0-20.613,16.763-37.666,37.368-38.015c10.033-0.174,19.575,3.704,26.898,10.904c7.484,7.358,11.775,17.546,11.775,27.951
								v14.462C377.444,162.805,372.293,167.957,365.961,167.957z"/>
						</g>
					</g>
				</g>
				<path style="fill:#2B7894;" d="M298.461,297.442l-0.295,1.424l-8.911,42.886h100.331l-8.912-42.899l-0.282-1.411
					c-1.476-7.045,0.321-14.436,5.056-19.838c8.764-10.009,19.735-30.334,2.31-59.373c-4.286-7.147-8.251-14.474-11.6-22.096
					l-0.783-1.796c-1.925-0.68-3.862-1.322-5.826-1.899c-7.686-2.258-15.732-3.67-24.021-4.132c-0.064-0.013-0.116-0.013-0.18-0.013
					c-1.963-0.115-3.939-0.167-5.928-0.167c-2.451,0-4.876,0.077-7.289,0.244c-0.038,0-0.077,0.013-0.115,0.013
					c-8.238,0.565-16.22,2.066-23.829,4.388c-1.591,0.488-3.157,1.014-4.709,1.566l-0.796,1.796
					c-3.336,7.622-7.314,14.949-11.6,22.096c-17.426,29.038-6.442,49.364,2.323,59.373
					C298.14,283.006,299.924,290.397,298.461,297.442z"/>
				<path style="fill:#256780;" d="M393.51,264.939c0,0-29.452,10.579-37.655,11.008l-1.26,3.126c0,0-5.13-0.65-5.993-5.825
					s-4.407-18.019-9.197-18.019v36.134c0,1.729,1.402,3.131,3.131,3.131h12.059l1.432,2.59c0,0,15.746,2.098,24.364,0.358
					l-1.861-11.41l8.944-13.902l5.192-5.347L393.51,264.939z"/>
				<path style="fill:#256780;" d="M285.376,264.939c0,0,29.453,10.579,37.655,11.008l1.26,3.126c0,0,5.13-0.65,5.993-5.825
					s4.407-18.019,9.197-18.019v36.134c0,1.729-1.402,3.131-3.131,3.131h-12.059l-1.432,2.59c0,0-15.746,2.098-24.364,0.358
					l1.861-11.41l-8.944-13.902l-5.192-5.347L285.376,264.939z"/>
				<g>
					<g>
						<path style="fill:#F29D7E;" d="M367.22,280.926h-14.492c-2.294,0-4.295-1.55-4.871-3.77c-1.78-6.855-5.576-20.63-7.249-20.308
							c-2.225,0.428-0.271,24.078-0.271,24.078s-2.651,8.803,0.99,10.88c2.019,1.151,25.893,0,25.893,0V280.926z"/>
						<path style="fill:#DB7F5E;" d="M352.728,280.926c0,0-0.564,8.564,2.72,11.301l1.788-4.728l-2.003-6.574H352.728z"/>
						<path style="fill:#2B7894;" d="M395.603,293.44c-14.551,3.49-29.949,3.067-38.919,1.129c-2.785-3.118-2.785-13.807,0-16.463
							c6.005-1.655,30.578-6.031,38.47-13.165c5.03-4.555,5.71-16.681,1.848-21.57c-0.09-0.115-0.18-0.231-0.282-0.334
							c-0.808-7.365-3.465-15.655-8.957-24.804c-4.286-7.147-8.251-14.474-11.6-22.096l-0.783-1.796
							c1.052,0.192,46.439,8.893,55.036,43.898C436.485,262.964,420.369,287.524,395.603,293.44z"/>
					</g>
					<g>
						<path style="fill:#F29D7E;" d="M311.625,280.926h14.492c2.294,0,4.295-1.55,4.871-3.77c1.78-6.855,5.576-20.63,7.249-20.308
							c2.225,0.428,0.271,24.078,0.271,24.078s2.651,8.803-0.99,10.88c-2.019,1.151-25.893,0-25.893,0V280.926z"/>
						<path style="fill:#DB7F5E;" d="M323.364,292.317c0,0,4.01-3.978,2.752-11.391h-3.33l-1.545,2.17c0,0,1.157,5.439,1.027,5.828
							C322.139,289.313,323.364,292.317,323.364,292.317z"/>
						<path style="fill:#2B7894;" d="M322.165,294.566c-8.983,1.938-24.38,2.362-38.926-1.129
							c-24.753-5.916-40.885-30.472-34.803-55.204c8.703-35.414,55.038-43.889,55.038-43.889v0.031l-0.031,0.062l-0.756,1.699
							c-3.336,7.626-7.315,14.951-11.594,22.1c-5.512,9.159-8.175,17.448-8.973,24.815c-0.093,0.104-0.176,0.207-0.269,0.321
							c-0.414,0.528-0.787,1.15-1.098,1.824c-2.569,5.605-1.544,15.687,2.943,19.748c7.885,7.128,32.471,11.511,38.471,13.159
							C324.941,280.765,324.941,291.447,322.165,294.566z"/>
						<path style="fill:#256780;" d="M303.473,194.343l-0.031,0.093l-0.756,1.699c-3.336,7.626-7.315,14.951-11.594,22.1
							c-5.512,9.159-8.175,17.448-8.973,24.815c-0.093,0.104-0.176,0.207-0.269,0.321c-0.414,0.528-0.787,1.15-1.098,1.824
							C273.551,226.11,303.473,194.343,303.473,194.343z"/>
						<path style="fill:#256780;" d="M375.555,194.343l0.031,0.093l0.756,1.699c3.336,7.626,7.315,14.951,11.594,22.1
							c5.512,9.159,8.175,17.448,8.973,24.815c0.093,0.104,0.176,0.207,0.269,0.321c0.414,0.528,0.788,1.15,1.098,1.824
							C405.478,226.11,375.555,194.343,375.555,194.343z"/>
					</g>
				</g>
				<path style="fill:#F29D7E;" d="M364.458,199.14l-21.717,28.534c-2.01,2.652-5.989,2.652-7.999,0l-21.52-28.286
					c-2.445-3.202-0.767-7.905,3.171-8.765c5.077-1.119,10.299-1.875,15.624-2.238c0.072,0.083,0.114,0.135,0.114,0.135v-21.603
					h13.221v21.603c0,0,0.062-0.072,0.176-0.217c5.346,0.3,10.589,0.995,15.697,2.051
					C365.194,191.183,366.914,195.908,364.458,199.14z"/>
				<path style="fill:#DB7F5E;" d="M345.353,166.918v12.174c-1.917,0.373-3.906,0.57-5.937,0.57c-2.507,0-4.942-0.3-7.284-0.86
					v-11.884H345.353z"/>
				<path style="fill:#F29D7E;" d="M370.665,141.625v0.742c0,17.253-13.996,31.249-31.249,31.249
					c-17.253,0-31.234-13.996-31.234-31.249v-11.27c9.179-2.969,17.086-8.831,22.63-16.51
					C337.614,130.068,352.822,141.004,370.665,141.625z"/>
				<g>
					<g>
						<g>
							<path style="fill:#2B7894;" d="M373.863,153.415h-2.799v-22.216h2.799c3.415,0,6.183,2.768,6.183,6.183v9.85
								C380.046,150.646,377.278,153.415,373.863,153.415z"/>
						</g>
						<g>
							<path style="fill:#2B7894;" d="M304.986,153.415h2.799v-22.216h-2.799c-3.415,0-6.183,2.768-6.183,6.183v9.85
								C298.803,150.646,301.571,153.415,304.986,153.415z"/>
						</g>
					</g>
				</g>
			</g>
		</g>
		<g>
			<path style="fill:#1B3036;" d="M181.757,90.591c-2.008,3.631-7.452,4.731-8.582,8.724c-1.183,4.185,3.344,8.305,2.458,12.562
				c-1.035,4.969-8.719,6.889-8.68,11.965c0.04,5.216,8.449,7.718,7.821,12.896c-0.454,3.745-5.639,5.92-5.303,9.678
				c0.24,2.683,3.157,4.175,4.693,6.388c4.21,6.067-3.032,14.64-0.412,21.544c1.169,3.08,4.169,5.171,7.334,6.087
				c3.164,0.916,6.52,0.836,9.813,0.747c23.395-0.628,46.789-1.256,70.184-1.884c4.218-0.113,8.879-0.374,10.89-5.504
				c0.414-1.056,0.623-2.191,0.646-3.325c0.033-1.624-0.248-3.174-0.715-4.672c-1.059-3.392-0.278-7.188,2.273-9.664
				c3.456-3.355,5.137-8.656,3.605-13.273c-1.581-4.762-5.979-8.729-5.661-13.736c0.354-5.589,6.616-10.274,4.998-15.636
				c-1.532-5.078-8.951-6.106-11.118-10.948c-2.293-5.123,2.546-11.601-0.219-16.485c-2.294-4.051-8.12-4.108-11.905-6.818
				c-5.04-3.608-5.901-11.516-11.392-14.391c-6.097-3.192-13.874,1.859-20.307-0.585c-3.006-1.142-5.535-3.871-8.75-3.778
				c-1.918,0.056-3.636,1.135-5.245,2.178c-5.297,3.435-5.872,9.192-15.892,10.304c-4.443,0.493-7.788,5.242-8.952,9.558
				C182.618,85.187,183.091,88.179,181.757,90.591z"/>
			<g>
				<g>
					<polygon style="fill:#F29D7E;" points="147.439,273.247 139.883,334.63 155.796,336.088 170.407,277.543 164.724,272.129 					
						"/>
					<path style="fill:#DB7F5E;" d="M169.456,281.354c0,0-8.207,6.429-23.278,2.143l1.262-10.249L169.456,281.354z"/>
					<path style="fill:#265161;" d="M192.078,168.433l-4.807-5.163c0,0-32.407,9.913-36.755,59.937
						c-4.557,47.788-4.918,54.266-4.918,54.266s11.436,8.598,26.699,2.983l20.199-90.726L192.078,168.433z"/>
				</g>
				<g>
					<polygon style="fill:#F29D7E;" points="298.999,273.247 306.555,334.63 290.642,336.088 276.031,277.543 281.714,272.129 					
						"/>
					<path style="fill:#DB7F5E;" d="M276.982,281.353c0,0,9.587,7.256,23.138,1.005l-1.122-9.111L276.982,281.353z"/>
					<path style="fill:#265161;" d="M254.36,168.433l4.807-5.163c0,0,32.407,9.913,36.755,59.937
						c4.557,47.788,4.918,54.266,4.918,54.266s-11.436,8.598-26.699,2.983l-20.199-90.726L254.36,168.433z"/>
				</g>
			</g>
			<g>
				<g>
					<g>
						<g>
							<path style="fill:#2B7894;" d="M249.753,136.889c-0.572,0-1.036-0.464-1.036-1.036s0.464-1.036,1.036-1.036
								c5.19,0,9.412-4.222,9.412-9.411v-14.462c0-19.733-15.661-36.23-34.911-36.774c-9.794-0.266-19.049,3.335-26.079,10.167
								c-7.033,6.837-10.906,15.988-10.906,25.767c0,0.572-0.464,1.036-1.036,1.036s-1.036-0.464-1.036-1.036
								c0-10.343,4.096-20.022,11.534-27.253c7.434-7.226,17.227-11.043,27.582-10.752c20.36,0.576,36.925,18.002,36.925,38.845
								v14.462C261.237,131.737,256.085,136.889,249.753,136.889z"/>
						</g>
					</g>
				</g>
				<path style="fill:#174656;" d="M261.681,168.855c0,0,18.872,29.056,20.16,30.654c1.288,1.598,12.806,35.909-13.811,53.492
					L261.681,168.855z"/>
				<path style="fill:#174656;" d="M185.196,168.855c0,0-18.872,29.056-20.16,30.654c-1.288,1.598-12.806,35.909,13.811,53.492
					L185.196,168.855z"/>
				<path style="fill:#265161;" d="M264.464,267.782l12.268,59.058h-107.04l12.268-59.037l0.29-1.43
					c0.622-2.994,0.663-6.051,0.124-8.993c-0.404-2.259-1.14-4.445-2.207-6.486c-0.798-1.554-1.792-3.015-2.974-4.362
					c-8.755-10.009-19.748-30.327-2.321-59.369c4.289-7.149,8.268-14.474,11.604-22.1l0.798-1.792
					c1.544-0.549,3.119-1.078,4.704-1.565c7.615-2.321,15.593-3.823,23.83-4.393c0.041,0,0.073-0.01,0.114-0.01
					c2.414-0.166,4.839-0.238,7.294-0.238c1.989,0,3.958,0.041,5.926,0.166c0.062,0,0.114,0,0.176,0.01
					c8.289,0.456,16.339,1.875,24.027,4.134c1.958,0.57,3.896,1.212,5.823,1.896l0.777,1.792c3.357,7.626,7.315,14.951,11.604,22.1
					c17.427,29.042,6.455,49.36-2.31,59.369c-2.238,2.559-3.823,5.554-4.704,8.755c-0.29,1.047-0.508,2.114-0.653,3.191
					c-0.342,2.601-0.249,5.274,0.301,7.895L264.464,267.782z"/>
				<path style="fill:#F29D7E;" d="M253.347,161.374l-30.814,40.491l-30.555-40.16c7.615-2.321,15.593-3.823,23.83-4.393
					c0.073,0.093,0.114,0.145,0.114,0.145v-21.613h13.221v21.613c0,0,0.062-0.083,0.176-0.218
					C237.608,157.696,245.659,159.116,253.347,161.374z"/>
				<path style="fill:#DB7F5E;" d="M229.143,135.845v13.718c-1.658,0.332-3.367,0.528-5.108,0.57
					c-2.798,0.072-5.522-0.228-8.113-0.85v-13.438H229.143z"/>
				<path style="fill:#F29D7E;" d="M254.458,110.557v0.037c0,17.057-13.371,31.502-30.422,31.943
					c-17.63,0.456-32.06-13.711-32.06-31.238v-11.27c9.179-2.969,17.086-8.831,22.63-16.51
					C221.407,99,236.614,109.936,254.458,110.557z"/>
				<g>
					<g>
						<g>
							<path style="fill:#2B7894;" d="M254.856,122.347L254.856,122.347v-22.216l0,0c4.96,0,8.982,4.021,8.982,8.982v4.252
								C263.838,118.325,259.817,122.347,254.856,122.347z"/>
						</g>
						<g>
							<path style="fill:#2B7894;" d="M191.577,122.347L191.577,122.347v-22.216l0,0c-4.961,0-8.982,4.021-8.982,8.982v4.252
								C182.595,118.325,186.616,122.347,191.577,122.347z"/>
						</g>
					</g>
				</g>
			</g>
			<path style="fill:#174656;" d="M264.537,255.287c-0.29,1.047-0.508,2.114-0.653,3.191c-6.02,2.684-12.796,3.512-19.313,2.134
				c-9.242-1.948-17.479-8.175-21.862-16.536c-3.45,6.849-9.563,12.319-16.795,14.868c-7.242,2.549-15.459,2.176-22.442-1.015
				c-0.373-0.166-0.746-0.352-1.098-0.549c-0.404-2.259-1.14-4.445-2.207-6.486c6.154,3.989,14.019,5.398,21.095,3.378
				c9.739-2.777,17.344-11.863,18.37-21.945c4.445,8.89,13.179,14.889,22.193,19.064
				C248.881,254.655,256.797,255.991,264.537,255.287z"/>
		</g>
		<g>
			<path style="fill:#3B9E84;" d="M186.87,318.241c-3.782,7.439-10.32,13.231-17.925,16.64c-0.425,0.197-0.86,0.383-1.285,0.539
				c-3.398,1.388-6.973,2.311-10.599,2.694c-4.455,0.487-8.973,0.166-13.304-1.057c-7.046-2.01-13.262-6.331-17.925-11.946
				c-0.456-0.559-0.912-1.129-1.337-1.72c-2.611-3.492-4.631-7.439-5.947-11.584c-0.155-0.487-0.29-0.974-0.425-1.461
				c-1.057-3.896-1.471-7.936-1.14-11.988c0.062-0.715,0.145-1.43,0.238-2.155c0.052-0.446,0.114-0.891,0.176-1.337
				c0.539-3.792,1.295-7.636,1.223-11.304c0-0.477-0.031-0.953-0.062-1.43c-0.187-2.093-0.694-4.113-1.71-6.009
				c-0.425-0.777-0.922-1.513-1.482-2.197c-0.394-0.508-0.829-0.984-1.285-1.451l-0.01-0.01c-2.756-2.849-6.362-5.087-9.17-7.781
				c-0.404-0.404-0.787-0.787-1.16-1.212c-1.399-1.565-2.487-3.316-2.994-5.429c-0.363-1.554-0.332-3.077,0.031-4.528
				c0.114-0.487,0.269-0.953,0.456-1.419c0.176-0.466,0.404-0.922,0.663-1.368c2.352-4.269,7.367-7.439,12.402-7.854
				c0.736-0.052,1.471-0.083,2.197-0.052c0.477,0.01,0.964,0.031,1.44,0.072c5.719,0.508,11.19,3.088,16.391,5.854
				c0.497,0.249,0.984,0.508,1.471,0.777c0.083,0.031,0.155,0.083,0.238,0.124c8.993,4.807,11.48,8.589,19.23,13.21
				c0.414,0.249,0.829,0.497,1.285,0.746c0.435,0.238,0.881,0.497,1.347,0.746c3.761,2.02,12.392,3.16,18.836,7.947
				c0.186,0.135,0.373,0.28,0.56,0.425c0.383,0.29,0.746,0.601,1.098,0.912c5.253,4.497,8.921,10.641,10.807,17.355
				c0.218,0.715,0.404,1.451,0.559,2.186C191.626,301.559,190.766,310.604,186.87,318.241z"/>
			<path style="fill:#42B093;" d="M164.956,327.98c-1.968,3.865-4.673,7.284-7.895,10.133c-4.455,0.487-8.973,0.166-13.304-1.057
				c-7.046-2.01-13.262-6.331-17.925-11.946c-0.456-0.559-0.912-1.129-1.337-1.72c-2.611-3.492-4.631-7.439-5.947-11.584
				c-0.155-0.487-0.29-0.974-0.425-1.461c-1.057-3.896-1.471-7.936-1.14-11.988c0.062-0.715,0.145-1.43,0.238-2.155
				c0.052-0.446,0.114-0.891,0.176-1.337c0.539-3.792,1.295-7.636,1.223-11.304c0-0.477-0.031-0.953-0.062-1.43
				c-0.187-2.093-0.694-4.113-1.71-6.009c-0.425-0.777-0.922-1.513-1.482-2.197c-0.394-0.508-0.829-0.984-1.285-1.451l-0.01-0.01
				c-2.756-2.849-6.362-5.087-9.17-7.781c-0.404-0.404-0.787-0.787-1.16-1.212c-1.399-1.565-2.487-3.316-2.994-5.429
				c-0.363-1.554-0.332-3.077,0.031-4.528c4.01,1.088,7.895,2.984,11.635,4.973c0.487,0.249,0.974,0.508,1.461,0.777
				c0.093,0.031,0.166,0.083,0.249,0.124c8.993,4.807,11.48,8.589,19.23,13.21c0.404,0.249,0.829,0.497,1.274,0.746
				c0.435,0.238,0.891,0.497,1.347,0.746c3.771,2.02,12.392,3.171,18.847,7.947c0.186,0.135,0.373,0.28,0.549,0.425
				c0.383,0.29,0.746,0.601,1.109,0.912c5.253,4.497,8.921,10.641,10.807,17.355c0.207,0.715,0.394,1.451,0.549,2.186
				C169.702,311.299,168.852,320.344,164.956,327.98z"/>
			<path style="fill:#1F5E4F;" d="M167.121,334.846c0.171,0.19,0.354,0.383,0.538,0.577c0.426-0.159,0.859-0.344,1.283-0.546
				c-1.927-2.06-3.719-4.25-5.335-6.559c11.388-9.549,20.319-21.62,26.15-35.145c-0.155-0.734-0.34-1.463-0.554-2.186
				c-5.701,13.957-14.725,26.395-26.354,36.199c-2.781-4.135-5.02-8.636-6.658-13.414c-0.444-1.296-0.838-2.619-1.218-3.939
				c10.493-10.158,18.492-22.511,23.426-36.196c-0.36-0.315-0.724-0.616-1.104-0.909c-4.785,13.46-12.544,25.615-22.777,35.651
				c-1.545-5.399-2.768-10.888-4.223-16.303c0.049-0.07,0.097-0.141,0.127-0.245c3.036-9.191,5.09-18.637,6.128-28.219
				c-0.447-0.255-0.869-0.503-1.277-0.747c-0.963,9.126-2.843,18.114-5.619,26.888c-0.787-2.746-1.654-5.458-2.69-8.121
				c-2.054-5.292-5.008-10.096-8.645-14.239c0.002-0.056,0.013-0.095,0.015-0.15c-0.838-5.899-1.684-11.815-2.535-17.718
				c-0.486-0.266-0.977-0.52-1.467-0.773c0.797,5.648,1.598,11.284,2.412,16.923c-4.074-4.24-8.899-7.724-14.198-10.247
				c0-0.098-0.013-0.201-0.055-0.297c-1.781-3.989-3.296-8.07-4.549-12.23c-0.481-0.04-0.966-0.067-1.442-0.077
				c1.222,4.025,2.666,7.959,4.331,11.816c-5.903-2.528-12.328-3.924-18.934-3.909c-0.255,0.447-0.485,0.902-0.662,1.372
				c9.503-0.153,19.022,2.625,26.908,7.947c-8.126,1.141-16.255,2.294-24.394,3.431c0.373,0.417,0.753,0.808,1.159,1.206
				c8.215-1.157,16.447-2.324,24.662-3.481c0.059-0.011,0.093-0.03,0.143-0.057c0.407,0.3,0.813,0.6,1.203,0.909
				c4.562,3.62,8.156,7.862,10.987,12.603c-9.266-0.721-18.54-1.46-27.819-2.185c0.456,0.469,0.896,0.947,1.285,1.453
				c8.892,0.699,17.771,1.393,26.663,2.092c0.249,0.015,0.416-0.077,0.53-0.228c2.436,4.304,4.285,8.988,5.704,13.942
				c-9.902-2.523-19.8-5.059-29.711-7.599c0.033,0.474,0.065,0.948,0.068,1.427c10.019,2.557,20.021,5.122,30.04,7.679
				c1.116,4.051,2.068,8.181,3.096,12.291c-11.445-2.882-22.913-5.785-34.358-8.667c-0.058,0.448-0.13,0.892-0.175,1.343
				c11.64,2.938,23.285,5.864,34.921,8.815c1.152,4.413,2.431,8.778,4.199,12.96c-12.737-2.55-25.478-5.087-38.216-7.637
				c0.127,0.487,0.268,0.978,0.425,1.459c12.737,2.55,25.465,5.083,38.19,7.629c0.091,0.026,0.176,0.023,0.266,0.006
				c0.278,0.601,0.522,1.22,0.816,1.811c2.191,4.374,4.877,8.398,7.972,12.074c-13.771-3.312-27.529-6.619-41.3-9.931
				c0.423,0.586,0.879,1.154,1.335,1.721c13.589,3.259,27.204,6.526,40.802,9.802C166.835,334.96,166.987,334.92,167.121,334.846z"
				/>
		</g>
		<g>
			<path style="fill:#3B9E84;" d="M409.374,329.016c-0.083,0.912-0.197,1.813-0.383,2.694c-0.104,0.58-0.238,1.16-0.383,1.741
				c-1.772,6.859-6.04,13.014-10.465,18.795c-0.414,0.539-0.818,1.088-1.243,1.627c-0.062,0.104-0.135,0.176-0.207,0.269
				c-7.688,9.988-12.806,12.247-20.017,20.753c-0.373,0.456-0.767,0.912-1.171,1.409c-0.373,0.487-0.777,0.974-1.171,1.492
				c-3.243,4.186-6.382,14.464-13.521,21.354c-0.207,0.197-0.415,0.394-0.642,0.591c-0.425,0.404-0.87,0.777-1.326,1.16
				c-6.548,5.481-14.785,8.703-23.343,9.636c-0.933,0.114-1.855,0.197-2.787,0.228c-10.599,0.57-21.458-2.311-29.964-8.61
				c-1.057-0.777-2.062-1.606-3.036-2.476c-6.673-5.989-11.335-14.06-13.594-22.763c-0.166-0.559-0.301-1.129-0.404-1.678
				c-2.238-9.833-1.451-20.339,2.87-29.467c3.885-8.175,10.413-14.868,18.194-19.417c0.788-0.445,1.575-0.881,2.373-1.274
				c4.797-2.476,10.009-4.134,15.334-4.89c0.622-0.093,1.243-0.166,1.865-0.228c4.963-0.497,9.978-0.176,14.847,1.046
				c0.85,0.228,1.72,0.466,2.57,0.736c0.549,0.145,1.067,0.321,1.606,0.487c4.507,1.419,9.045,3.129,13.532,3.782
				c0.58,0.093,1.171,0.155,1.751,0.207c2.59,0.207,5.149,0,7.667-0.86c1.046-0.352,2.041-0.808,2.984-1.347
				c0.694-0.373,1.368-0.818,2.031-1.274l0.01-0.021c4.03-2.777,7.501-6.714,11.356-9.584c0.57-0.414,1.119-0.798,1.709-1.16
				c2.197-1.399,4.549-2.373,7.232-2.549c2.611-0.186,5.015,0.497,7.139,1.793c0.539,0.311,1.046,0.684,1.544,1.088
				c4.165,3.295,6.88,8.973,7.087,14.526C409.446,327.566,409.436,328.291,409.374,329.016z"/>
			<path style="fill:#42B093;" d="M409.374,329.016c-0.083,0.912-0.197,1.813-0.383,2.694c-0.104,0.58-0.238,1.16-0.383,1.741
				c-1.772,6.859-6.04,13.014-10.465,18.795c-0.414,0.539-0.818,1.088-1.243,1.627c-0.062,0.104-0.135,0.176-0.207,0.269
				c-7.688,9.988-12.806,12.247-20.017,20.753c-0.373,0.456-0.767,0.912-1.171,1.409c-0.373,0.487-0.777,0.974-1.171,1.492
				c-3.243,4.186-6.382,14.464-13.521,21.354c-0.207,0.197-0.415,0.394-0.642,0.591c-0.425,0.404-0.87,0.777-1.326,1.16
				c-6.548,5.481-14.785,8.703-23.343,9.636c-0.933,0.114-1.855,0.197-2.787,0.228c-10.599,0.57-21.458-2.311-29.964-8.61
				c-1.057-0.777-2.062-1.606-3.036-2.476c-0.767-1.886-1.409-3.833-1.917-5.802c-0.155-0.559-0.3-1.119-0.404-1.668
				c-2.238-9.833-1.44-20.349,2.88-29.477c3.875-8.164,10.413-14.868,18.194-19.417c0.777-0.435,1.565-0.881,2.362-1.274
				c4.797-2.476,10.019-4.134,15.345-4.891c0.611-0.093,1.243-0.166,1.865-0.218c4.963-0.508,9.978-0.186,14.837,1.047
				c0.86,0.218,1.72,0.466,2.58,0.725c0.539,0.145,1.067,0.321,1.595,0.487c4.507,1.43,9.045,3.129,13.532,3.792
				c0.59,0.093,1.171,0.145,1.751,0.207c2.59,0.197,5.16-0.01,7.678-0.86c1.036-0.352,2.031-0.808,2.984-1.357
				c0.694-0.373,1.368-0.808,2.031-1.274v-0.01c4.041-2.777,7.512-6.714,11.356-9.584c0.57-0.414,1.129-0.798,1.71-1.171
				c2.207-1.388,4.559-2.362,7.232-2.549c1.43-0.104,2.798,0.062,4.093,0.445C409.446,327.566,409.436,328.291,409.374,329.016z"/>
			<path style="fill:#1F5E4F;" d="M286.523,374.7c-0.266,0.169-0.539,0.354-0.813,0.538c0.107,0.551,0.245,1.117,0.405,1.675
				c2.903-1.93,5.937-3.668,9.08-5.169c9.324,15.823,22.221,29.166,37.522,39.025c0.927-0.039,1.852-0.116,2.777-0.23
				c-15.853-9.789-29.18-23.318-38.764-39.488c5.606-2.548,11.548-4.362,17.705-5.388c1.67-0.277,3.363-0.488,5.05-0.684
				c10.248,14.857,23.679,27.12,39.357,35.918c0.457-0.375,0.898-0.757,1.332-1.161c-15.434-8.57-28.672-20.5-38.824-35.015
				c6.895-0.785,13.835-1.159,20.732-1.832c0.076,0.073,0.152,0.147,0.273,0.204c10.586,5.571,21.682,9.996,33.152,13.21
				c0.402-0.493,0.79-0.957,1.171-1.405c-10.928-3.03-21.502-7.15-31.632-12.318c3.507-0.401,6.99-0.906,10.446-1.628
				c6.868-1.427,13.326-4.051,19.115-7.642c0.068,0.014,0.113,0.035,0.18,0.049c7.361,0.179,14.745,0.35,22.113,0.514
				c0.424-0.539,0.832-1.085,1.241-1.63c-7.047-0.177-14.079-0.347-21.119-0.502c5.996-4.103,11.225-9.277,15.378-15.223
				c0.12,0.02,0.247,0.025,0.374-0.007c5.224-1.36,10.507-2.376,15.834-3.057c0.147-0.579,0.278-1.164,0.387-1.742
				c-5.155,0.671-10.244,1.631-15.284,2.875c4.281-6.681,7.291-14.229,8.616-22.285c-0.493-0.402-1.001-0.774-1.538-1.086
				c-1.746,11.615-7.069,22.653-15.16,31.184c0.262-10.137,0.51-20.281,0.779-30.434c-0.584,0.37-1.138,0.754-1.706,1.168
				c-0.26,10.249-0.513,20.521-0.773,30.77c0.002,0.075,0.017,0.119,0.041,0.186c-0.448,0.435-0.896,0.869-1.352,1.281
				c-5.34,4.824-11.243,8.342-17.598,10.829c2.764-11.148,5.55-22.303,8.321-33.466c-0.664,0.461-1.337,0.899-2.033,1.271
				c-2.66,10.697-5.313,21.379-7.973,32.076c-0.069,0.301,0.009,0.523,0.17,0.692c-5.742,2.094-11.827,3.395-18.155,4.117
				c5.089-11.557,10.194-23.106,15.306-34.671c-0.584-0.056-1.169-0.113-1.754-0.207c-5.154,11.693-10.316,23.363-15.47,35.055
				c-5.165,0.536-10.393,0.856-15.612,1.274c5.841-13.365,11.712-26.753,17.553-40.118c-0.534-0.162-1.06-0.34-1.602-0.487
				c-5.949,13.592-11.883,27.19-17.848,40.775c-5.614,0.507-11.195,1.178-16.652,2.482c5.699-15.008,11.383-30.022,17.082-45.03
				c-0.62,0.056-1.246,0.128-1.865,0.221c-5.699,15.008-11.376,30.007-17.067,45c-0.05,0.106-0.063,0.211-0.061,0.323
				c-0.789,0.216-1.593,0.388-2.374,0.627c-5.777,1.781-11.228,4.237-16.34,7.262c6.838-16.113,13.668-32.21,20.506-48.323
				c-0.8,0.396-1.585,0.837-2.369,1.277c-6.737,15.902-13.488,31.833-20.247,47.743C286.441,374.328,286.46,374.522,286.523,374.7z"
				/>
		</g>
		<g>
			<g>
				<g>
					<path style="fill:#DB7F5E;" d="M86.165,299.493l-0.15-1.233c-5.676-0.042-16.82,0.152-17.441,2.315
						c-0.708,2.463,16.05,5.784,21.208,6.746c0.972,0.181,1.967,0.169,2.935-0.037l6.053-1.287c1.611-0.342,3.262-0.147,4.732,0.503
						l-1.096-8.988L86.165,299.493z"/>
					<path style="fill:#DB7F5E;" d="M103.189,292.372c-5.19-2.848-13.798-7.218-15.271-5.735
						c-1.794,1.808,11.13,12.661,15.271,16.055V292.372z"/>
					<path style="fill:#F29D7E;" d="M87.141,296.705v-1.242c-5.629-0.729-16.715-1.886-17.594,0.186
						c-1,2.359,15.232,7.685,20.236,9.264c0.943,0.298,1.932,0.406,2.917,0.319l6.165-0.544c1.641-0.145,3.256,0.249,4.636,1.072
						v-9.055H87.141z"/>
					<path style="fill:#F29D7E;" d="M124.682,313.385l-7.859-15.398c0,0-4.491-15.559-24.862-3.368c0,0-18.927-6.095-20.531-3.529
						c-1.358,2.173,13.839,9.978,18.533,12.322c0.885,0.442,1.845,0.704,2.831,0.772l6.174,0.429
						c2.452,0.17,4.678,1.496,5.995,3.572l8.492,13.38L124.682,313.385z"/>
				</g>
				<path style="fill:#E95F5C;" d="M223.613,284.222l-4.705-8.272c0,0-15.403,5.492-30.223,22.601
					c-14.821,17.109-38.88,41.704-69.249,1.497l-12.832,11.226c0,0,23.097,75.71,102.991,38.604L223.613,284.222z"/>
				<path style="fill:#D15553;" d="M218.906,275.947L198.31,309.53c-0.762,1.242-1.339,2.581-1.718,3.988
					c-1.83,6.802-5.906,27.099,6.51,39.179l6.492-2.817L218.906,275.947z"/>
			</g>
			<path style="fill:#1B3036;" d="M300.749,246.768l-1.842-4.51c-0.571-1.397-0.863-2.874-0.863-4.364v-19.243
				c0-22.118-19.582-40.076-43.874-40.409c-24.292,0.333-43.874,18.291-43.874,40.409v19.243c0,1.49-0.292,2.967-0.863,4.364
				l-1.842,4.51c-2.81,6.878,1.424,14.545,9.23,16.455c10.727,2.625,24.909,3.648,37.348,2.243
				c12.439,1.405,26.621,0.382,37.348-2.243C299.325,261.313,303.559,253.646,300.749,246.768z"/>
			<g>
				<g>
					<g>
						<path style="fill:#E95F5C;" d="M281.391,249.569c-0.572,0-1.036-0.463-1.036-1.036c0-0.573,0.464-1.036,1.036-1.036
							c5.19,0,9.411-4.222,9.411-9.412v-14.461c0-9.854-4.066-19.504-11.156-26.474c-6.924-6.809-15.972-10.467-25.409-10.309
							c-19.482,0.329-35.331,16.453-35.331,35.942c0,0.572-0.464,1.036-1.036,1.036c-0.572,0-1.036-0.464-1.036-1.036
							c0-20.613,16.763-37.666,37.368-38.015c10.015-0.178,19.574,3.703,26.897,10.903c7.483,7.358,11.776,17.546,11.776,27.952
							v14.461C292.875,244.417,287.723,249.569,281.391,249.569z"/>
					</g>
				</g>
			</g>
			<path style="fill:#E95F5C;" d="M296.107,380.469l12.268,59.048h-107.05l12.267-59.037l0.301-1.43
				c1.015-4.911,0.456-9.998-1.575-14.454c-0.891-1.927-2.051-3.751-3.481-5.377c-3.274-3.73-6.849-8.9-9.128-15.417
				c-3.875-10.962-4.124-25.747,6.807-43.962c4.279-7.149,8.258-14.474,11.594-22.09l0.798-1.803
				c1.554-0.549,3.119-1.078,4.714-1.565c7.605-2.321,15.583-3.823,23.83-4.383c0.031,0,0.072-0.021,0.114-0.021
				c2.414-0.166,4.839-0.238,7.284-0.238c1.989,0,3.968,0.052,5.926,0.166c0.073,0,0.114,0,0.187,0.01
				c8.289,0.466,16.329,1.875,24.017,4.134c1.969,0.58,3.906,1.223,5.823,1.896l0.788,1.803c3.347,7.615,7.315,14.941,11.594,22.09
				c16.132,26.887,7.926,46.314-0.342,56.986c-0.653,0.85-1.306,1.647-1.958,2.393c-1.751,1.989-3.098,4.248-4.02,6.662
				c-1.596,4.134-1.969,8.724-1.036,13.169L296.107,380.469z"/>
			<path style="fill:#D15553;" d="M298.66,392.758l-4.591,0.744l-0.897-4.378l-1.878,0.24c0,0-5.517,6.878-13.994,3.751
				l-1.268-4.676l20.075-7.97L298.66,392.758z"/>
			<path style="fill:#D15553;" d="M302.841,356.825c-0.653,0.85-1.306,1.647-1.958,2.393c-1.751,1.989-3.098,4.248-4.02,6.662
				c-4.911,3.461-10.496,5.885-16.433,6.548c-8.786,0.984-18.298-2.404-23.323-9.677c-11.936,8.382-28.721,9.584-41.91,3.357
				c-0.984-0.466-1.948-0.964-2.88-1.513c-0.891-1.927-2.051-3.751-3.481-5.377c-3.274-3.73-6.849-8.9-9.128-15.417
				c2.746,3.554,5.73,6.911,9.138,9.843c6.963,5.978,16.08,10.061,25.198,8.993c9.107-1.067,17.748-8.299,18.463-17.448
				c7.325,11.791,20.473,18.318,34.295,17.065C292.48,361.747,297.982,359.819,302.841,356.825z"/>
			<path style="fill:#F29D7E;" d="M279.881,280.744l-21.717,28.545c-2.01,2.642-5.978,2.642-7.988,0l-21.53-28.286
				c-2.435-3.212-0.756-7.905,3.171-8.765c5.087-1.119,10.299-1.875,15.635-2.238c0.072,0.083,0.114,0.135,0.114,0.135v-21.603
				h13.21v21.603c0,0,0.073-0.073,0.187-0.218c5.336,0.301,10.579,0.995,15.687,2.052
				C280.627,272.787,282.337,277.522,279.881,280.744z"/>
			<path style="fill:#DB7F5E;" d="M260.775,248.531v13.842c-1.917,0.373-3.896,0.57-5.926,0.57c-2.507,0-4.942-0.3-7.284-0.86
				v-13.552H260.775z"/>
			<path style="fill:#F29D7E;" d="M286.096,223.237v0.742c0,17.253-13.996,31.249-31.249,31.249s-31.234-13.996-31.234-31.249
				v-11.27c9.179-2.969,17.086-8.831,22.63-16.51C253.044,211.68,268.252,222.616,286.096,223.237z"/>
			<g>
				<path style="fill:#E95F5C;" d="M289.293,235.027h-2.799v-22.216h2.799c3.415,0,6.183,2.768,6.183,6.183v9.85
					C295.476,232.259,292.708,235.027,289.293,235.027z"/>
				<path style="fill:#E95F5C;" d="M220.416,235.027h2.799v-22.216h-2.799c-3.415,0-6.183,2.768-6.183,6.183v9.85
					C214.233,232.259,217.001,235.027,220.416,235.027z"/>
			</g>
			<path style="fill:#FFFFFF;" d="M233.929,361.292l28.015-8.264c2.277-0.672,4.662,0.66,5.284,2.952l10.072,37.135
				c0.606,2.234-0.694,4.54-2.919,5.178l-27.048,7.751c-2.226,0.638-4.551-0.631-5.219-2.848l-11.039-36.622
				C230.396,364.326,231.677,361.956,233.929,361.292z"/>
			<g>
				<path style="fill:#F29D7E;" d="M280.966,375.401l-6.116-8.589c-0.596-0.836-1.327-1.589-2.225-2.087
					c-2.15-1.193-4.823-1.191-7.011,0.142c-0.796,0.494-1.665,1.024-2.557,1.571c-6.077,3.816-13.629,8.888-13.024,10.265
					c0.908,2.11,13.463-3.169,15.364-3.995c0.159-0.063,0.245-0.101,0.245-0.101s0.076,0.43,0.232,1.133
					c1.829,3.686,4.875,7.27,9.683,6.806c1.444-0.141,2.694-0.357,3.807-0.613L280.966,375.401z"/>
				<path style="fill:#F29D7E;" d="M309.091,374.813l1.36,9.203l-18.677,3.084c0,0-1.848,3.996-11.438,4.933
					c-4.809,0.464-7.854-3.12-9.683-6.806c-0.167-0.339-0.335-0.69-0.477-1.032c-1.462-3.312-1.985-6.413-1.985-6.413
					s-0.121,0.057-0.355,0.143c-2.22,0.951-14.366,6.014-15.256,3.94c-0.688-1.585,9.347-8.022,15.583-11.823
					c2.785-1.696,6.355-1.237,8.631,1.086l4.172,4.274l21.72-3.209L309.091,374.813z"/>
				<path style="fill:#F29D7E;" d="M282.623,381.128l-3.598-3.676c-2.278-2.335-5.848-2.794-8.633-1.098
					c-0.796,0.494-1.665,1.024-2.557,1.571c-6.077,3.816-13.63,8.888-13.024,10.265c0.908,2.11,13.463-3.169,15.364-3.995
					c0.159-0.063,0.244-0.101,0.244-0.101s0.077,0.43,0.232,1.133c1.829,3.686,4.875,7.27,9.683,6.806
					c1.445-0.141,2.694-0.357,3.807-0.613L282.623,381.128z"/>
			</g>
			<path style="fill:#E95F5C;" d="M348.606,357.467c-10.568,29.083-40.988,32.845-50.355,33.3c-1.761,0.093-2.777,0.062-2.777,0.062
				l-3.637-17.003c0,0,1.409-0.56,3.575-1.699c9.004-4.714,31.083-19.417,18.919-45.288h-0.01c-0.705-1.523-1.544-3.088-2.507-4.683
				v-0.01c-1.098-6.735-3.751-14.174-8.631-22.307c-2.424-4.051-4.745-8.154-6.911-12.34c-1.668-3.202-3.233-6.445-4.683-9.75
				l-0.788-1.803c0,0,40.377,4.663,55.981,40.688C352.388,329.586,353.434,344.205,348.606,357.467z"/>
			<path style="fill:#D15553;" d="M314.332,326.84h-0.01c-0.705-1.523-1.544-3.088-2.507-4.683v-0.01
				c-1.098-6.735-3.751-14.174-8.631-22.307c-2.424-4.051-4.745-8.154-6.911-12.34C296.583,288.111,312.429,301.098,314.332,326.84z
				"/>
			<polygon style="fill:#DB7F5E;" points="291.838,373.828 291.774,387.1 294.578,386.637 			"/>
			<polygon style="fill:#DB7F5E;" points="106.604,311.274 116.823,297.987 118.357,300.992 			"/>
		</g>
		<path style="fill:#46ACC3;" d="M425.042,140.443c4.395,4.07,7.834,9.167,9.962,14.766c1.742,4.583,2.517,10.035-0.115,14.172
			c-2.576,4.049-7.984,5.722-12.677,4.715c-4.692-1.006-8.653-4.286-11.427-8.201c-2.775-3.916-4.508-8.459-6.134-12.974
			c-1.611-4.474-3.089-9.679-0.656-13.765c2.066-3.471,6.552-4.977,10.548-4.387C418.539,135.359,422.079,137.698,425.042,140.443z"
			/>
		<path style="fill:#46ACC3;" d="M421.436,118.612c0.646-3.376,3.07-6.359,6.242-7.681c5.674-2.365,13.034,1.54,14.257,7.565
			c1.223,6.025-4.031,12.49-10.178,12.525C425.609,131.056,420.282,124.651,421.436,118.612z"/>
		<path style="fill:#46ACC3;" d="M67.264,195.884c1.5-5.287,5.347-9.862,10.298-12.247c4.951-2.385,10.926-2.542,15.996-0.42
			c4.595,1.923,8.393,5.677,10.371,10.249c2.566,5.931,1.924,13.14-1.649,18.525c-3.573,5.385-9.965,8.779-16.427,8.721
			c-4.607-0.041-9.181-1.78-12.652-4.81C67.669,211.073,65.259,202.95,67.264,195.884z"/>
		<path style="fill:#46ACC3;" d="M83.963,173.223c-4.214-0.836-7.464-5.083-7.17-9.368c0.294-4.286,4.095-8.048,8.383-8.3
			c4.288-0.252,8.503,3.041,9.296,7.263C95.546,168.527,89.661,174.353,83.963,173.223z"/>
		<path style="fill:#FCAF4B;" d="M153.528,89.479v67.585l-12.164-8.206H69.822c-5.605,0-10.144-4.538-10.144-10.133V89.479
			c0-5.595,4.538-10.133,10.144-10.133h73.574C148.99,79.346,153.528,83.884,153.528,89.479z"/>
		<path style="fill:#FCC14B;" d="M141.323,148.858H69.822c-5.605,0-10.144-4.538-10.144-10.133V94.618
			c4.994-1.171,10.226-1.793,15.593-1.793C108.986,92.826,136.847,117.205,141.323,148.858z"/>
		<path style="fill:#FCAF4B;" d="M428.376,177.03v36.585c0,4.155-3.378,7.532-7.532,7.532h-54.665c-4.155,0-7.533-3.378-7.533-7.532
			v-50.21l9.045,6.092h53.152C424.998,169.497,428.376,172.875,428.376,177.03z"/>
		<path style="fill:#FCC14B;" d="M428.376,177.03v34.823c-17.365,1.067-38.149-5.025-57.006-18.142
			c-4.6-3.201-8.848-6.652-12.723-10.288v-20.018l9.045,6.092h53.152C424.998,169.497,428.376,172.875,428.376,177.03z"/>
		<g>
			<path style="fill:#FCD88E;" d="M314.917,71.598v23.843c0,1.753-1.422,3.175-3.165,3.175h-40.907
				c-1.753,0-3.175-1.422-3.175-3.175V71.598c0-0.526,0.127-1.023,0.36-1.461c0.526-1.023,1.588-1.714,2.815-1.714h40.907
				c1.217,0,2.279,0.691,2.805,1.714C314.79,70.575,314.917,71.072,314.917,71.598z"/>
			<path style="fill:#FCFBE9;" d="M314.556,70.137l-20.502,13.947c-1.617,1.091-3.906,1.091-5.513,0L268.03,70.137
				c0.526-1.023,1.588-1.714,2.815-1.714h40.907C312.969,68.423,314.03,69.114,314.556,70.137z"/>
		</g>
		<g>
			<path style="fill:#FCD88E;" d="M159.551,364.12v53.438c0,3.929-3.187,7.116-7.095,7.116H60.774c-3.929,0-7.116-3.187-7.116-7.116
				V364.12c0-1.179,0.284-2.292,0.808-3.274c1.179-2.292,3.558-3.842,6.309-3.842h91.682c2.729,0,5.108,1.55,6.287,3.842
				C159.267,361.828,159.551,362.941,159.551,364.12z"/>
			<path style="fill:#FCFBE9;" d="M158.743,360.845l-45.95,31.259c-3.624,2.445-8.754,2.445-12.355,0l-45.972-31.259
				c1.179-2.292,3.558-3.842,6.309-3.842h91.682C155.185,357.003,157.564,358.553,158.743,360.845z"/>
		</g>
	</g>
</g>
<g id="DESIGNED_BY_FREEPIK">
	<g>
		<g id="XMLID_57_">
			<g id="XMLID_76_">
				<path id="XMLID_84_" style="fill:#102028;" d="M260.104,465.465c-0.432,0.443-0.803,0.931-1.108,1.453l-0.465-0.241
					c-0.067-0.298-0.349-0.503-0.659-0.466c-0.331,0.039-0.568,0.339-0.529,0.67s0.339,0.568,0.67,0.529
					c0.065-0.008,0.127-0.026,0.184-0.052l0.451,0.234c-0.251,0.554-0.433,1.139-0.539,1.744l0.746,0.132
					c0.23-1.306,0.85-2.507,1.792-3.473L260.104,465.465z"/>
				<path id="XMLID_83_" style="fill:#102028;" d="M265.592,463.163c-0.171,0-0.341,0.006-0.51,0.017l-0.074-0.626
					c0.188-0.149,0.296-0.389,0.266-0.645c-0.046-0.393-0.402-0.674-0.795-0.628s-0.674,0.402-0.628,0.795
					c0.03,0.254,0.189,0.461,0.405,0.564l0.073,0.624c-0.714,0.116-1.403,0.332-2.06,0.646l0.327,0.684
					c0.934-0.447,1.942-0.673,2.995-0.673c0.496,0,0.993,0.053,1.475,0.158l0.161-0.741
					C266.693,463.222,266.142,463.163,265.592,463.163z"/>
				<path id="XMLID_82_" style="fill:#102028;" d="M272.194,465.711c0.331-0.04,0.566-0.341,0.525-0.672
					c-0.04-0.331-0.341-0.566-0.672-0.526c-0.309,0.038-0.535,0.304-0.53,0.609l-0.416,0.363c-0.418-0.43-0.89-0.813-1.408-1.139
					l-0.404,0.641c1.134,0.715,2.021,1.726,2.563,2.925l0.69-0.313c-0.251-0.554-0.568-1.072-0.942-1.545l0.402-0.351
					C272.065,465.716,272.129,465.719,272.194,465.711z"/>
				<path id="XMLID_81_" style="fill:#102028;" d="M265.044,473.372c-0.386,0.023-0.775,0.035-1.157,0.035
					c-0.88,0-1.733-0.061-2.478-0.179c-0.39-0.062-0.846-0.155-1.27-0.292c1.046,1.861,3.069,3.125,5.388,3.125
					c2.855,0,5.262-1.916,5.95-4.504c-0.682,0.449-1.505,0.825-2.459,1.123C267.839,473.047,266.464,473.286,265.044,473.372z"/>
				<path id="XMLID_77_" style="fill:#102028;" d="M265.592,464.68c-3.352,0-6.08,2.666-6.08,5.943c0,0.426,0.046,0.849,0.137,1.261
					c0.674,0.483,2.706,0.89,5.348,0.731c2.879-0.173,5.297-0.957,6.672-2.159c-0.005-0.195-0.021-0.39-0.045-0.582
					C271.244,466.913,268.65,464.68,265.592,464.68z M263.432,471.194c-1.02,0-1.85-0.83-1.85-1.85c0-1.02,0.83-1.85,1.85-1.85
					c1.02,0,1.85,0.83,1.85,1.85C265.282,470.365,264.452,471.194,263.432,471.194z M268.17,470.286c-0.75,0-1.36-0.61-1.36-1.36
					s0.61-1.361,1.36-1.361c0.75,0,1.361,0.61,1.361,1.361S268.92,470.286,268.17,470.286z"/>
			</g>
			<path id="XMLID_74_" style="fill:#102028;" d="M281.595,466.547c-0.295-0.116-0.806-0.309-1.382-0.237
				c-0.551,0.069-0.844,0.341-0.844,1.007v0.866h2.228v1.717h-2.228v5.455h-1.932v-5.455h-1.34v-1.717h1.34v-0.888
				c0-1.68,0.895-2.783,2.568-2.783c0.642,0,1.157,0.122,1.59,0.308L281.595,466.547z"/>
			<path id="XMLID_72_" style="fill:#102028;" d="M286.298,469.879c-0.177-0.03-0.358-0.046-0.526-0.046
				c-0.896,0-1.51,0.548-1.51,1.614v3.908h-1.932v-7.172h1.873v0.785c0.451-0.673,1.14-0.977,2.021-0.977
				c0.414,0,0.848,0.128,1.094,0.337L286.298,469.879z"/>
			<path id="XMLID_69_" style="fill:#102028;" d="M293.965,471.757c0,0.222-0.015,0.489-0.037,0.651h-5.085
				c0.207,1.036,0.933,1.488,1.843,1.488c0.622,0,1.295-0.252,1.813-0.688l1.133,1.243c-0.814,0.748-1.85,1.088-3.057,1.088
				c-2.198,0-3.723-1.495-3.723-3.753c0-2.258,1.48-3.797,3.626-3.797C292.544,467.99,293.958,469.522,293.965,471.757z
				 M288.851,471.091h3.175c-0.178-0.918-0.733-1.436-1.562-1.436C289.554,469.655,289.021,470.203,288.851,471.091z"/>
			<path id="XMLID_66_" style="fill:#102028;" d="M301.618,471.757c0,0.222-0.015,0.489-0.037,0.651h-5.085
				c0.207,1.036,0.932,1.488,1.843,1.488c0.622,0,1.295-0.252,1.813-0.688l1.132,1.243c-0.814,0.748-1.85,1.088-3.057,1.088
				c-2.198,0-3.723-1.495-3.723-3.753c0-2.258,1.48-3.797,3.627-3.797C300.197,467.99,301.611,469.522,301.618,471.757z
				 M296.504,471.091h3.175c-0.178-0.918-0.733-1.436-1.562-1.436C297.207,469.655,296.674,470.203,296.504,471.091z"/>
			<path id="XMLID_63_" style="fill:#102028;" d="M309.964,471.764c0,2.154-1.495,3.775-3.471,3.775
				c-0.962,0-1.643-0.378-2.109-0.933v3.708h-1.924v-10.133h1.887v0.792c0.466-0.585,1.155-0.984,2.139-0.984
				C308.469,467.99,309.964,469.61,309.964,471.764z M304.287,471.764c0,1.132,0.747,1.976,1.843,1.976
				c1.14,0,1.85-0.881,1.85-1.976c0-1.095-0.711-1.976-1.85-1.976C305.035,469.788,304.287,470.632,304.287,471.764z"/>
			<path id="XMLID_60_" style="fill:#102028;" d="M313.068,465.836c0,0.696-0.54,1.229-1.236,1.229
				c-0.696,0-1.229-0.533-1.229-1.229c0-0.696,0.533-1.243,1.229-1.243C312.527,464.592,313.068,465.14,313.068,465.836z
				 M312.809,475.354h-1.932v-7.172h1.932V475.354z"/>
			<path id="XMLID_58_" style="fill:#102028;" d="M316.032,470.736l2.702-2.554h2.368l-3.479,3.375l3.501,3.797h-2.376l-2.716-2.901
				v2.901H314.1v-10.658h1.932V470.736z"/>
		</g>
		<g>
			<path style="fill:#102028;" d="M184.412,475.289v-1.055c-0.527,0.718-1.391,1.23-2.387,1.23c-1.846,0-3.149-1.406-3.149-3.706
				c0-2.256,1.289-3.721,3.149-3.721c0.952,0,1.816,0.469,2.387,1.245v-3.765h1.099v9.77H184.412z M184.412,473.37v-3.208
				c-0.395-0.615-1.245-1.143-2.124-1.143c-1.421,0-2.27,1.172-2.27,2.739c0,1.567,0.85,2.724,2.27,2.724
				C183.168,474.483,184.017,473.986,184.412,473.37z"/>
			<path style="fill:#102028;" d="M186.932,471.744c0-2.051,1.465-3.706,3.486-3.706c2.139,0,3.398,1.67,3.398,3.794v0.279h-5.727
				c0.088,1.333,1.025,2.446,2.549,2.446c0.806,0,1.626-0.322,2.182-0.894l0.527,0.718c-0.703,0.703-1.655,1.084-2.812,1.084
				C188.441,475.465,186.932,473.956,186.932,471.744z M190.404,468.947c-1.509,0-2.256,1.274-2.314,2.358h4.643
				C192.718,470.25,192.015,468.947,190.404,468.947z"/>
			<path style="fill:#102028;" d="M194.607,474.351l0.571-0.791c0.469,0.542,1.362,1.011,2.329,1.011c1.084,0,1.67-0.513,1.67-1.216
				c0-1.714-4.38-0.659-4.38-3.281c0-1.098,0.952-2.036,2.636-2.036c1.201,0,2.051,0.454,2.622,1.026l-0.513,0.762
				c-0.424-0.513-1.201-0.894-2.109-0.894c-0.967,0-1.567,0.483-1.567,1.113c0,1.552,4.38,0.527,4.38,3.281
				c0,1.187-0.952,2.138-2.783,2.138C196.306,475.465,195.325,475.113,194.607,474.351z"/>
			<path style="fill:#102028;" d="M201.477,466.471c0-0.41,0.337-0.747,0.732-0.747c0.41,0,0.747,0.337,0.747,0.747
				c0,0.41-0.337,0.732-0.747,0.732C201.814,467.203,201.477,466.881,201.477,466.471z M201.667,475.289v-7.075h1.099v7.075H201.667
				z"/>
			<path style="fill:#102028;" d="M204.582,477.105l0.556-0.82c0.586,0.703,1.289,0.967,2.3,0.967c1.172,0,2.27-0.571,2.27-2.124
				v-1.011c-0.513,0.718-1.377,1.26-2.373,1.26c-1.845,0-3.149-1.377-3.149-3.662c0-2.27,1.289-3.677,3.149-3.677
				c0.952,0,1.802,0.469,2.373,1.245v-1.069h1.099v6.87c0,2.344-1.641,3.076-3.369,3.076
				C206.237,478.16,205.417,477.926,204.582,477.105z M209.709,473.253v-3.091c-0.381-0.615-1.23-1.143-2.109-1.143
				c-1.421,0-2.27,1.128-2.27,2.695c0,1.553,0.849,2.695,2.27,2.695C208.478,474.41,209.328,473.868,209.709,473.253z"/>
			<path style="fill:#102028;" d="M217.413,475.289v-4.629c0-1.245-0.63-1.641-1.582-1.641c-0.865,0-1.685,0.527-2.095,1.099v5.17
				h-1.099v-7.075h1.099v1.025c0.498-0.586,1.464-1.201,2.519-1.201c1.48,0,2.256,0.747,2.256,2.285v4.966H217.413z"/>
			<path style="fill:#102028;" d="M219.932,471.744c0-2.051,1.465-3.706,3.486-3.706c2.139,0,3.398,1.67,3.398,3.794v0.279h-5.727
				c0.088,1.333,1.025,2.446,2.549,2.446c0.806,0,1.626-0.322,2.183-0.894l0.527,0.718c-0.703,0.703-1.655,1.084-2.812,1.084
				C221.441,475.465,219.932,473.956,219.932,471.744z M223.404,468.947c-1.509,0-2.256,1.274-2.314,2.358h4.643
				C225.718,470.25,225.015,468.947,223.404,468.947z"/>
			<path style="fill:#102028;" d="M233.35,475.289v-1.055c-0.527,0.718-1.392,1.23-2.388,1.23c-1.846,0-3.149-1.406-3.149-3.706
				c0-2.256,1.289-3.721,3.149-3.721c0.952,0,1.817,0.469,2.388,1.245v-3.765h1.098v9.77H233.35z M233.35,473.37v-3.208
				c-0.396-0.615-1.245-1.143-2.124-1.143c-1.421,0-2.27,1.172-2.27,2.739c0,1.567,0.849,2.724,2.27,2.724
				C232.105,474.483,232.954,473.986,233.35,473.37z"/>
			<path style="fill:#102028;" d="M239.692,475.289v-9.77h1.098v3.765c0.572-0.776,1.421-1.245,2.388-1.245
				c1.845,0,3.149,1.465,3.149,3.721c0,2.299-1.304,3.706-3.149,3.706c-0.996,0-1.86-0.513-2.388-1.23v1.055H239.692z
				 M242.9,474.483c1.436,0,2.286-1.157,2.286-2.724c0-1.568-0.85-2.739-2.286-2.739c-0.864,0-1.728,0.527-2.109,1.143v3.208
				C241.171,473.986,242.036,474.483,242.9,474.483z"/>
			<path style="fill:#102028;" d="M247.529,477.061c0.161,0.073,0.425,0.117,0.601,0.117c0.483,0,0.805-0.161,1.055-0.747
				l0.469-1.069l-2.959-7.148h1.187l2.358,5.8l2.344-5.8h1.201l-3.545,8.51c-0.425,1.025-1.143,1.421-2.08,1.435
				c-0.234,0-0.601-0.044-0.805-0.103L247.529,477.061z"/>
		</g>
	</g>
</g>
</svg>
